<svg xmlns="http://www.w3.org/2000/svg" xmlns:xlink="http://www.w3.org/1999/xlink" width="300.928" height="282.11" viewBox="0 0 300.928 282.11">
  <defs>
    <clipPath id="clip-path">
      <circle id="Ellipse_3" data-name="Ellipse 3" cx="26.894" cy="26.894" r="26.894" fill="none"/>
    </clipPath>
    <clipPath id="clip-path-2">
      <circle id="Ellipse_4" data-name="Ellipse 4" cx="13.846" cy="13.846" r="13.846" transform="matrix(0.374, -0.928, 0.928, 0.374, 0, 25.687)" fill="none"/>
    </clipPath>
  </defs>
  <g id="Wall_post-bro_1_" data-name="Wall post-bro (1)" transform="translate(0 0.5)">
    <g id="freepik--background-simple--inject-61" transform="translate(0 1.455)">
      <path id="Path_115" data-name="Path 115" d="M323.776,169.762a295.357,295.357,0,0,0-7.538-30.512c-9.09-29.042-27.2-58.439-58.22-68.343-22.892-7.334-47.577-2.359-66.888,12.444-30.271,23.208-52.273,54.9-85.415,75-27.67,16.779-42.12,43.944-32.72,82.4s40.552,60.918,74.576,58.235c28.3-2.261,57.888.271,82.385,14.1,21.859,12.354,60.5,1.749,92.38-31.824,18.58-19.56,16.726-44.471,10.613-67.785C329.18,199.045,326.708,184.354,323.776,169.762Z" transform="translate(-70.128 -67.561)" fill="#dfc25a"/>
      <path id="Path_116" data-name="Path 116" d="M323.776,169.762a295.357,295.357,0,0,0-7.538-30.512c-9.09-29.042-27.2-58.439-58.22-68.343-22.892-7.334-47.577-2.359-66.888,12.444-30.271,23.208-52.273,54.9-85.415,75-27.67,16.779-42.12,43.944-32.72,82.4s40.552,60.918,74.576,58.235c28.3-2.261,57.888.271,82.385,14.1,21.859,12.354,60.5,1.749,92.38-31.824,18.58-19.56,16.726-44.471,10.613-67.785C329.18,199.045,326.708,184.354,323.776,169.762Z" transform="translate(-70.128 -67.561)" fill="#fff" opacity="0.7"/>
    </g>
    <g id="freepik--Ground--inject-61" transform="translate(1.313 273.085)">
      <path id="Path_117" data-name="Path 117" d="M358.025,432.189c0,2.359-64.069,4.266-143.078,4.266S71.87,434.548,71.87,432.189s64.069-4.259,143.078-4.259S358.025,429.837,358.025,432.189Z" transform="translate(-71.87 -427.93)" fill="#dfc25a"/>
      <path id="Path_118" data-name="Path 118" d="M358.025,432.189c0,2.359-64.069,4.266-143.078,4.266S71.87,434.548,71.87,432.189s64.069-4.259,143.078-4.259S358.025,429.837,358.025,432.189Z" transform="translate(-71.87 -427.93)" fill="#fff" opacity="0.3"/>
    </g>
    <g id="freepik--Plants--inject-61" transform="translate(163.114 162.471)">
      <path id="Path_119" data-name="Path 119" d="M443.871,321.134c0,.038,1.93-2,2.043-2.141,1.229-1.643,2.631-5.548,1.3-7.417a2.721,2.721,0,0,0-4.033-.347c-1.221,1.063-1.507,3.015-1.394,4.575C441.941,317.6,443.863,321.134,443.871,321.134Z" transform="translate(-324.755 -288.398)" fill="#dfc25a"/>
      <path id="Path_120" data-name="Path 120" d="M447.172,306.905c-1.884-1.312-5.774.121-7.409,1.364-.143.106-2.156,2.035-2.126,2.058h.045c-.618.219-1.274.467-1.982.754-1.319.535-2.8,1.146-4.357,1.922a48.6,48.6,0,0,0-4.937,2.736,35.964,35.964,0,0,0-5.02,3.822l-.053.053c.332-.588,1.214-2.261,1.266-2.389.754-1.907,1.078-6.03-.7-7.5a2.721,2.721,0,0,0-3.98.754c-.9,1.349-.648,3.339-.143,4.779.58,1.636,3.173,4.342,3.384,4.523a48.449,48.449,0,0,0-4.334,4.741c-.754.972-1.553,1.975-2.261,3.015.271-.513.513-.972.543-1.04.754-1.915,1.078-6.03-.708-7.538a2.721,2.721,0,0,0-3.98.754c-.9,1.357-.648,3.339-.143,4.786s2.691,3.814,3.271,4.432c-.279.392-.573.754-.852,1.176-1.357,1.884-2.7,3.769-4.07,5.593-.482.641-.987,1.251-1.508,1.862.241-.452.445-.844.467-.9.754-1.914,1.078-6.03-.7-7.538a2.729,2.729,0,0,0-3.987.754c-.9,1.349-.648,3.332-.136,4.779a16.826,16.826,0,0,0,3.166,4.319c-.528.618-1.063,1.236-1.6,1.8-.377.384-.716.754-1.116,1.138l-1.2,1.116c-.754.663-1.508,1.349-2.261,1.982-.52.445-1.033.852-1.508,1.274.49-.633,1.417-1.892,1.508-2a10.552,10.552,0,0,0,1.236-5.186,2.973,2.973,0,0,0,.256-.543,2.721,2.721,0,0,0-1.8-3.625c-2.261-.558-5.344,2.186-6.43,3.927-.06.105-.626,1.3-.972,2.058.136-.475.271-.935.407-1.432.264-.972.505-1.952.754-3.015.113-.513.219-1.025.332-1.553s.181-1.078.279-1.621c.2-1.266.332-2.555.437-3.859.852.234,3.889,1.025,5.412.791s3.384-.95,4.161-2.374a2.729,2.729,0,0,0-1.236-3.859c-2.118-.882-5.615,1.349-6.95,2.909-.083.1-.912,1.327-1.357,2.013.06-.754.121-1.568.158-2.359.1-2.3.121-4.628.158-6.95l.045-2.126c.309.09,3.9,1.1,5.608.844,1.508-.234,3.377-.95,4.153-2.374a2.729,2.729,0,0,0-1.229-3.859c-2.126-.889-5.623,1.349-6.95,2.909-.106.121-1.3,1.884-1.575,2.352,0-1.56.09-3.121.2-4.651a47.523,47.523,0,0,1,.822-6.158c.143.038,3.889,1.116,5.638.852,1.507-.234,3.384-.95,4.153-2.374a2.714,2.714,0,0,0-1.229-3.859c-2.126-.889-5.616,1.349-6.95,2.909-.09.106-1,1.447-1.417,2.1l-.121-.053a35.014,35.014,0,0,1,1.937-5.947c.437-1.063.912-2.05,1.4-3.015.678.279,3.769,1.508,5.382,1.417s3.467-.573,4.394-1.907a2.721,2.721,0,0,0-.8-3.965c-2.013-1.116-5.729.754-7.229,2.126-.083.083-.822.95-1.357,1.59.226-.43.452-.874.678-1.281.844-1.508,1.7-2.864,2.48-4.04.445-.671.867-1.266,1.259-1.824.807-.075,4.04-.437,5.4-1.221s2.812-2.1,3.015-3.716a2.714,2.714,0,0,0-2.533-3.151c-2.3-.06-4.756,3.286-5.435,5.224-.06.166-.678,2.887-.633,2.887h.045c-.392.528-.807,1.093-1.244,1.719-.807,1.168-1.7,2.495-2.578,4.01a47.478,47.478,0,0,0-2.6,5,35.233,35.233,0,0,0-2.08,5.955v.068c-.045-.671-.226-2.548-.256-2.683-.43-2.013-2.442-5.638-4.726-5.872a2.713,2.713,0,0,0-2.917,2.8c0,1.621,1.3,3.143,2.518,4.07,1.379,1.04,5.043,1.862,5.329,1.93a48.683,48.683,0,0,0-1,6.347c-.121,1.244-.2,2.5-.264,3.769-.06-.58-.113-1.1-.128-1.168-.43-2.013-2.435-5.638-4.726-5.872a2.714,2.714,0,0,0-2.917,2.8c0,1.628,1.3,3.143,2.518,4.07s4.349,1.7,5.171,1.892c0,.482-.045.965-.06,1.455-.09,2.322-.166,4.636-.309,6.912-.053.8-.128,1.583-.211,2.374-.045-.52-.09-.95-.106-1.018-.43-2-2.435-5.638-4.726-5.872a2.721,2.721,0,0,0-2.917,2.811c0,1.621,1.3,3.136,2.517,4.063s4.048,1.628,5.028,1.862c-.106.8-.2,1.605-.339,2.382-.106.528-.173,1.04-.309,1.56s-.241,1.04-.362,1.545c-.264.98-.535,1.982-.822,2.925-.188.663-.384,1.289-.58,1.915.06-.8.143-2.359.136-2.487-.121-2.05-1.553-5.94-3.769-6.52a2.721,2.721,0,0,0-3.309,2.329c-.249,1.605.807,3.309,1.877,4.4,1.176,1.214,4.523,2.54,4.945,2.706-.324,1.04-.656,2.05-.98,3.015-1.116,3.279-2.178,5.97-2.94,7.839a2.072,2.072,0,0,0-.075.2l1.364.754.151-.377c.754-1.907,1.734-4.651,2.8-7.982.332-1.055.671-2.193,1.01-3.354a31.941,31.941,0,0,0,3.467.219,19.722,19.722,0,0,0,2.593,4.8c-.852.686-1.681,1.342-2.472,1.952-2.744,2.118-5.11,3.769-6.784,4.922l-.2.128,1.508.829c1.628-1.168,3.806-2.789,6.309-4.809.867-.693,1.771-1.455,2.7-2.261.332.286,3.09,2.623,4.711,3.09,1.508.43,3.467.558,4.771-.415a2.729,2.729,0,0,0,.5-4.017c-1.56-1.7-5.668-1.131-7.538-.271-.113.053-1.244.754-1.952,1.183.377-.324.754-.633,1.131-.972.754-.663,1.508-1.349,2.3-2.08l1.131-1.116c.392-.362.754-.8,1.131-1.2.859-.95,1.681-1.952,2.495-2.977.58.663,2.683,3.015,4.078,3.648s3.347,1.078,4.779.309a2.714,2.714,0,0,0,1.1-3.9c-1.281-1.907-5.427-1.975-7.4-1.4-.121,0-1.507.6-2.261.927.482-.626.965-1.244,1.432-1.884,1.342-1.862,2.653-3.769,3.965-5.706.4-.588.806-1.168,1.214-1.749.2.241,2.638,3.068,4.206,3.769,1.394.641,3.347,1.078,4.779.309a2.721,2.721,0,0,0,1.1-3.9c-1.281-1.907-5.435-1.967-7.4-1.4-.151.045-2.126.859-2.616,1.093.9-1.281,1.794-2.548,2.736-3.769a49.372,49.372,0,0,1,4.085-4.681c.1.113,2.631,3.075,4.236,3.822,1.387.641,3.339,1.07,4.771.309a2.721,2.721,0,0,0,1.1-3.9c-1.281-1.907-5.427-1.975-7.4-1.41-.128,0-1.628.663-2.337.972l-.075-.106a34.405,34.405,0,0,1,4.9-3.889c.95-.648,1.892-1.206,2.827-1.734.415.6,2.344,3.324,3.708,4.146s3.211,1.44,4.719.837a2.729,2.729,0,0,0,1.507-3.769c-1.07-2.035-5.186-2.555-7.206-2.208-.113,0-1.206.332-2.005.573.422-.226.859-.475,1.266-.686,1.545-.807,3.015-1.447,4.3-2.013.754-.309,1.417-.573,2.05-.822.716.377,3.618,1.862,5.186,1.96s3.5-.2,4.568-1.432a2.729,2.729,0,0,0-.414-3.995Z" transform="translate(-310.455 -281.179)" fill="#dfc25a"/>
      <path id="Path_121" data-name="Path 121" d="M397.188,295.286c1.1,1.425,4.681,3.294,4.681,3.294s.513-2.736.528-2.909c.113-2.05-.867-6.083-3.015-6.912a2.721,2.721,0,0,0-3.558,1.937C395.4,292.256,396.253,294.065,397.188,295.286Z" transform="translate(-313.416 -283.007)" fill="#dfc25a"/>
      <g id="Group_1640" data-name="Group 1640" transform="translate(73.236)" opacity="0.5">
        <path id="Path_122" data-name="Path 122" d="M443.871,321.134c0,.038,1.93-2,2.043-2.141,1.229-1.643,2.631-5.548,1.3-7.417a2.721,2.721,0,0,0-4.033-.347c-1.221,1.063-1.507,3.015-1.394,4.575C441.941,317.6,443.863,321.134,443.871,321.134Z" transform="translate(-397.99 -288.398)" fill="#fff"/>
        <path id="Path_123" data-name="Path 123" d="M447.172,306.905c-1.884-1.312-5.774.121-7.409,1.364-.143.106-2.156,2.035-2.126,2.058h.045c-.618.219-1.274.467-1.982.754-1.319.535-2.8,1.146-4.357,1.922a48.6,48.6,0,0,0-4.937,2.736,35.964,35.964,0,0,0-5.02,3.822l-.053.053c.332-.588,1.214-2.261,1.266-2.389.754-1.907,1.078-6.03-.7-7.5a2.721,2.721,0,0,0-3.98.754c-.9,1.349-.648,3.339-.143,4.779.58,1.636,3.173,4.342,3.384,4.523a48.449,48.449,0,0,0-4.334,4.741c-.754.972-1.553,1.975-2.261,3.015.271-.513.513-.972.543-1.04.754-1.915,1.078-6.03-.708-7.538a2.721,2.721,0,0,0-3.98.754c-.9,1.357-.648,3.339-.143,4.786s2.691,3.814,3.271,4.432c-.279.392-.573.754-.852,1.176-1.357,1.884-2.7,3.769-4.07,5.593-.482.641-.987,1.251-1.508,1.862.241-.452.445-.844.467-.9.754-1.914,1.078-6.03-.7-7.538a2.729,2.729,0,0,0-3.987.754c-.9,1.349-.648,3.332-.136,4.779a16.826,16.826,0,0,0,3.166,4.319c-.528.618-1.063,1.236-1.6,1.8-.377.384-.716.754-1.116,1.138l-1.2,1.116c-.754.663-1.508,1.349-2.261,1.982-.52.445-1.033.852-1.508,1.274.49-.633,1.417-1.892,1.508-2a10.552,10.552,0,0,0,1.236-5.186,2.973,2.973,0,0,0,.256-.543,2.721,2.721,0,0,0-1.8-3.625c-2.261-.558-5.344,2.186-6.43,3.927-.06.105-.626,1.3-.972,2.058.136-.475.271-.935.407-1.432.264-.972.505-1.952.754-3.015.113-.513.219-1.025.332-1.553s.181-1.078.279-1.621c.2-1.266.332-2.555.437-3.859.852.234,3.889,1.025,5.412.791s3.384-.95,4.161-2.374a2.729,2.729,0,0,0-1.236-3.859c-2.118-.882-5.615,1.349-6.95,2.909-.083.1-.912,1.327-1.357,2.013.06-.754.121-1.568.158-2.359.1-2.3.121-4.628.158-6.95l.045-2.126c.309.09,3.9,1.1,5.608.844,1.508-.234,3.377-.95,4.153-2.374a2.729,2.729,0,0,0-1.229-3.859c-2.126-.889-5.623,1.349-6.95,2.909-.106.121-1.3,1.884-1.575,2.352,0-1.56.09-3.121.2-4.651a47.523,47.523,0,0,1,.822-6.158c.143.038,3.889,1.116,5.638.852,1.507-.234,3.384-.95,4.153-2.374a2.714,2.714,0,0,0-1.229-3.859c-2.126-.889-5.616,1.349-6.95,2.909-.09.106-1,1.447-1.417,2.1l-.121-.053a35.014,35.014,0,0,1,1.937-5.947c.437-1.063.912-2.05,1.4-3.015.678.279,3.769,1.508,5.382,1.417s3.467-.573,4.394-1.907a2.721,2.721,0,0,0-.8-3.965c-2.013-1.116-5.729.754-7.229,2.126-.083.083-.822.95-1.357,1.59.226-.43.452-.874.678-1.281.844-1.508,1.7-2.864,2.48-4.04.445-.671.867-1.266,1.259-1.824.807-.075,4.04-.437,5.4-1.221s2.812-2.1,3.015-3.716a2.714,2.714,0,0,0-2.533-3.151c-2.3-.06-4.756,3.286-5.435,5.224-.06.166-.678,2.887-.633,2.887h.045c-.392.528-.807,1.093-1.244,1.719-.807,1.168-1.7,2.495-2.578,4.01a47.478,47.478,0,0,0-2.6,5,35.233,35.233,0,0,0-2.08,5.955v.068c-.045-.671-.226-2.548-.256-2.683-.43-2.013-2.442-5.638-4.726-5.872a2.713,2.713,0,0,0-2.917,2.8c0,1.621,1.3,3.143,2.518,4.07,1.379,1.04,5.043,1.862,5.329,1.93a48.683,48.683,0,0,0-1,6.347c-.121,1.244-.2,2.5-.264,3.769-.06-.58-.113-1.1-.128-1.168-.43-2.013-2.435-5.638-4.726-5.872a2.714,2.714,0,0,0-2.917,2.8c0,1.628,1.3,3.143,2.518,4.07s4.349,1.7,5.171,1.892c0,.482-.045.965-.06,1.455-.09,2.322-.166,4.636-.309,6.912-.053.8-.128,1.583-.211,2.374-.045-.52-.09-.95-.106-1.018-.43-2-2.435-5.638-4.726-5.872a2.721,2.721,0,0,0-2.917,2.811c0,1.621,1.3,3.136,2.517,4.063s4.048,1.628,5.028,1.862c-.106.8-.2,1.605-.339,2.382-.106.528-.173,1.04-.309,1.56s-.241,1.04-.362,1.545c-.264.98-.535,1.982-.822,2.925-.188.663-.384,1.289-.58,1.915.06-.8.143-2.359.136-2.487-.121-2.05-1.553-5.94-3.769-6.52a2.721,2.721,0,0,0-3.309,2.329c-.249,1.605.807,3.309,1.877,4.4,1.176,1.214,4.523,2.54,4.945,2.706-.324,1.04-.656,2.05-.98,3.015-1.116,3.279-2.178,5.97-2.94,7.839a2.072,2.072,0,0,0-.075.2l1.364.754.151-.377c.754-1.907,1.734-4.651,2.8-7.982.332-1.055.671-2.193,1.01-3.354a31.941,31.941,0,0,0,3.467.219,19.722,19.722,0,0,0,2.593,4.8c-.852.686-1.681,1.342-2.472,1.952-2.744,2.118-5.11,3.769-6.784,4.922l-.2.128,1.508.829c1.628-1.168,3.806-2.789,6.309-4.809.867-.693,1.771-1.455,2.7-2.261.332.286,3.09,2.623,4.711,3.09,1.508.43,3.467.558,4.771-.415a2.729,2.729,0,0,0,.5-4.017c-1.56-1.7-5.668-1.131-7.538-.271-.113.053-1.244.754-1.952,1.183.377-.324.754-.633,1.131-.972.754-.663,1.508-1.349,2.3-2.08l1.131-1.116c.392-.362.754-.8,1.131-1.2.859-.95,1.681-1.952,2.495-2.977.58.663,2.683,3.015,4.078,3.648s3.347,1.078,4.779.309a2.714,2.714,0,0,0,1.1-3.9c-1.281-1.907-5.427-1.975-7.4-1.4-.121,0-1.507.6-2.261.927.482-.626.965-1.244,1.432-1.884,1.342-1.862,2.653-3.769,3.965-5.706.4-.588.806-1.168,1.214-1.749.2.241,2.638,3.068,4.206,3.769,1.394.641,3.347,1.078,4.779.309a2.721,2.721,0,0,0,1.1-3.9c-1.281-1.907-5.435-1.967-7.4-1.4-.151.045-2.126.859-2.616,1.093.9-1.281,1.794-2.548,2.736-3.769a49.372,49.372,0,0,1,4.085-4.681c.1.113,2.631,3.075,4.236,3.822,1.387.641,3.339,1.07,4.771.309a2.721,2.721,0,0,0,1.1-3.9c-1.281-1.907-5.427-1.975-7.4-1.41-.128,0-1.628.663-2.337.972l-.075-.106a34.405,34.405,0,0,1,4.9-3.889c.95-.648,1.892-1.206,2.827-1.734.415.6,2.344,3.324,3.708,4.146s3.211,1.44,4.719.837a2.729,2.729,0,0,0,1.507-3.769c-1.07-2.035-5.186-2.555-7.206-2.208-.113,0-1.206.332-2.005.573.422-.226.859-.475,1.266-.686,1.545-.807,3.015-1.447,4.3-2.013.754-.309,1.417-.573,2.05-.822.716.377,3.618,1.862,5.186,1.96s3.5-.2,4.568-1.432a2.729,2.729,0,0,0-.414-3.995Z" transform="translate(-383.691 -281.179)" fill="#fff"/>
        <path id="Path_124" data-name="Path 124" d="M397.188,295.286c1.1,1.425,4.681,3.294,4.681,3.294s.513-2.736.528-2.909c.113-2.05-.867-6.083-3.015-6.912a2.721,2.721,0,0,0-3.558,1.937C395.4,292.256,396.253,294.065,397.188,295.286Z" transform="translate(-386.651 -283.007)" fill="#fff"/>
      </g>
      <path id="Path_125" data-name="Path 125" d="M368.041,339.006s-12.565-30.346-19.628-29.02,12.06,48.368,12.06,48.368-22.153-41.773-37.251-41.773,5.563,46.167,24.716,61.552c0,0-30.2-32.532-47.818-25.5s35.238,40.017,35.238,40.017-30.708-9.678-27.18-2.2,13.085,8.8,13.085,8.8L286.53,401H407.3l-27.18-2.638s28.19-14.073,20.638-19.786-24.181,6.6-24.181,6.6,28.688-31.658,23.148-43.529-30.2,21.542-30.2,21.542,20.133-42.655,16.108-50.125S368.041,339.006,368.041,339.006Z" transform="translate(-286.53 -288.262)" fill="#dfc25a"/>
      <path id="Path_126" data-name="Path 126" d="M368.041,339.006s-12.565-30.346-19.628-29.02,12.06,48.368,12.06,48.368-22.153-41.773-37.251-41.773,5.563,46.167,24.716,61.552c0,0-30.2-32.532-47.818-25.5s35.238,40.017,35.238,40.017-30.708-9.678-27.18-2.2,13.085,8.8,13.085,8.8L286.53,401H407.3l-27.18-2.638s28.19-14.073,20.638-19.786-24.181,6.6-24.181,6.6,28.688-31.658,23.148-43.529-30.2,21.542-30.2,21.542,20.133-42.655,16.108-50.125S368.041,339.006,368.041,339.006Z" transform="translate(-286.53 -288.262)" fill="#fff" opacity="0.5"/>
      <path id="Path_127" data-name="Path 127" d="M396.383,350.62c-11.073,32.713-11.073,55.868-11.073,55.868s13.085.505,26.675-9.565" transform="translate(-310.854 -298.278)" fill="none" stroke="#263238" stroke-linecap="round" stroke-linejoin="round" stroke-width="1"/>
      <path id="Path_128" data-name="Path 128" d="M389.715,364.628a195.978,195.978,0,0,0-9.045-28.688" transform="translate(-309.712 -294.664)" fill="none" stroke="#263238" stroke-linecap="round" stroke-linejoin="round" stroke-width="1"/>
      <path id="Path_129" data-name="Path 129" d="M349.26,348.61l28.19,41.75s19.13-16.108,25.673-25.168" transform="translate(-301.977 -297.784)" fill="none" stroke="#263238" stroke-linecap="round" stroke-linejoin="round" stroke-width="1"/>
      <path id="Path_130" data-name="Path 130" d="M372.351,410.153S342.645,396.065,330.57,388" transform="translate(-297.375 -307.483)" fill="none" stroke="#263238" stroke-linecap="round" stroke-linejoin="round" stroke-width="1"/>
    </g>
    <g id="freepik--Device--inject-61" transform="translate(80.442)">
      <rect id="Rectangle_60" data-name="Rectangle 60" width="154.15" height="277.811" rx="6.75" fill="#263238" stroke="#263238" stroke-miterlimit="10" stroke-width="1"/>
      <path id="Path_131" data-name="Path 131" d="M286.328,86.347H267.137a1.967,1.967,0,0,1-1.967-1.99h0a1.967,1.967,0,0,1,1.967-1.967h19.191a1.967,1.967,0,0,1,1.967,1.967h0a1.967,1.967,0,0,1-1.967,1.99Z" transform="translate(-198.598 -69.757)" fill="#dfc25a"/>
      <path id="Path_132" data-name="Path 132" d="M324.436,324.091H189.77V87.933h31.922l3.588,3.015a7,7,0,0,0,4.47,1.553h56.313a7.032,7.032,0,0,0,4.621-1.734l3.241-2.857h30.512Z" transform="translate(-180.031 -71.116)" fill="#fff"/>
      <line id="Line_2" data-name="Line 2" x2="27.407" transform="translate(63.368 107.84)" fill="none" stroke="#263238" stroke-linecap="round" stroke-linejoin="round" stroke-width="2"/>
      <line id="Line_3" data-name="Line 3" x2="39.301" transform="translate(57.421 113.523)" fill="none" stroke="#263238" stroke-linecap="round" stroke-linejoin="round" stroke-width="2"/>
      <line id="Line_4" data-name="Line 4" x2="128.251" transform="translate(12.625 121.287)" fill="none" stroke="#000" stroke-miterlimit="10" stroke-width="2" opacity="0.2"/>
      <line id="Line_5" data-name="Line 5" x2="128.251" transform="translate(12.625 140.417)" fill="none" stroke="#000" stroke-miterlimit="10" stroke-width="2" opacity="0.2"/>
      <path id="Path_133" data-name="Path 133" d="M290.683,90.787a7.032,7.032,0,0,1-4.621,1.734H229.749a7,7,0,0,1-4.47-1.605L221.692,87.9H189.77v55.883H324.436V87.93H293.962Z" transform="translate(-180.031 -71.114)" opacity="0.2"/>
      <path id="Path_134" data-name="Path 134" d="M282.811,409.91a3.06,3.06,0,1,0-3.06,3.06A3.06,3.06,0,0,0,282.811,409.91Z" transform="translate(-201.435 -149.654)" fill="#dfc25a"/>
      <path id="Path_135" data-name="Path 135" d="M269.645,179.285a27.648,27.648,0,1,1,27.64-27.645,27.648,27.648,0,0,1-27.64,27.645Z" transform="translate(-192.89 -80.001)" fill="#dfc25a"/>
      <path id="Path_136" data-name="Path 136" d="M269.4,124.508a26.9,26.9,0,1,0,.005,0M269.4,123a28.4,28.4,0,1,0,28.394,28.4A28.4,28.4,0,0,0,269.4,123Z" transform="translate(-192.644 -79.757)" fill="#263238"/>
      <g id="Group_1641" data-name="Group 1641" transform="translate(49.861 44.743)" clip-path="url(#clip-path)">
        <path id="Path_137" data-name="Path 137" d="M271.335,134.76s.271-2.616,1.786-2.616,1.1.55,2.472,0,1.508-1.786,2.337-.822-.407,1.786.829,1.508,1.651-1.1,2.2-.686a3.767,3.767,0,0,1,.822.829l.279.55a1.364,1.364,0,0,0-2.065-.279c-1.236.965-2.2,1.236-2.472.55s-1.93-.415-1.93,0a2.133,2.133,0,0,1-.407.965s3.709-.136,4.809-.136,1.786-.965,3.437-.415a8.6,8.6,0,0,1,3.716,1.922c.7.822-.55,2.065-.279,2.751s3.166,1.236,3.166,2.2-1.259,1.214.143,1.967,2.616,1.508,2.344,2.337-1.1,1.786-.829,2.608,1.93,2.2,1.236,3.015-1.236.271-.957,1.372,1.236,3.3.407,3.716-1.786.965-1.651,2.065.415,1.922-.271,2.608-2.48.829-2.48,2.48-.136,2.2-.822,2.608-1.93-.271-2.337,1.1-2.065,1.508-2.887,1.244-1.508-.829-2.065.686-1.379,1.786-2.48,1.508a3.219,3.219,0,0,0-3.158.957,2.264,2.264,0,0,1-2.887.279c-.822-.55-1.508-1.786-2.065-.686s-2.065,2.2-2.751,1.372-1.236-2.2-2.065-1.372a1.937,1.937,0,0,1-2.751-.143,2.879,2.879,0,0,0-2.751-1.1c-1.1.279-2.472.415-2.608-.957s-.136-2.344-1.236-2.065-2.751.822-2.894-.55-.136-2.2-.957-2.2-2.2-.965-2.065-1.786.415-3.716,0-3.716-1.1-1.1-.686-2.472.407-2.48,0-2.616a2.128,2.128,0,0,1-.143-2.751c.822-1.1,1.1-1.922.279-2.472a1.832,1.832,0,0,1-.279-2.751,3.881,3.881,0,0,0,1.244-2.337c0-.686,1.651-2.344,2.2-2.751a3.565,3.565,0,0,0,1.1-2.887c0-1.508.271-1.651,2.751-2.751a12.264,12.264,0,0,0,3.987-2.616c.957-.829,3.573-.829,4.673-.279S269.382,131.6,271.335,134.76Z" transform="translate(-244.199 -126.462)" fill="#263238" stroke="#263238" stroke-linecap="round" stroke-linejoin="round" stroke-width="1"/>
        <path id="Path_138" data-name="Path 138" d="M265.635,172.515c-.121,2.05.52,3.769,1.425,3.814s1.741-1.568,1.854-3.626-.52-3.769-1.425-3.814S265.748,170.48,265.635,172.515Z" transform="translate(-248.57 -135.8)" fill="none" stroke="#fff" stroke-linecap="round" stroke-linejoin="round" stroke-width="1"/>
        <path id="Path_139" data-name="Path 139" d="M289.811,170.095c.347,1.915,1.311,3.339,2.163,3.181s1.266-1.824.92-3.769-1.312-3.339-2.163-3.181S289.472,168.188,289.811,170.095Z" transform="translate(-254.498 -135.166)" fill="none" stroke="#fff" stroke-linecap="round" stroke-linejoin="round" stroke-width="1"/>
        <path id="Path_140" data-name="Path 140" d="M259.19,194.433c1.108-4.734,2.593-5.729,4.869-5.638,3.437.136,4.259.686,6.6.686s.693-11.14.693-11.14a8.525,8.525,0,0,0,8.525.822s-.279,5.917.822,7.7,1.651,2.337,3.995,1.379,5.909-3.987,8.246-3.015c.693.286,2.714,2.744,5.276,9.218Z" transform="translate(-246.987 -138.127)" fill="#fff" stroke="#263238" stroke-linecap="round" stroke-linejoin="round" stroke-width="1"/>
        <path id="Path_141" data-name="Path 141" d="M275.127,149.467s2.065.136,2.337,1.651.143,2.065,1.379,2.337,1.922.55,1.922,1.651-.415,1.508,1.1,1.508,1.236-.965,1.786.415.693,1.786,1.244,1.786.686,4.809-.143,7.839-3.158,7.7-4.945,8.291-4.522-1.259-6.467-2.894c-1.756-1.462-4.816-6.324-4.816-6.324l-.55-.415s-.822.143-1.236-.957c0,0-.136-1.794.686-2.344a4.44,4.44,0,0,0,1.507-2.472c0-.415-.55-.965,0-1.372s1.507-.829,1.651-1.794-1.1-2.2,0-2.887,1.786-.415,1.786-1.372-.686-1.93.136-2.48A4.46,4.46,0,0,1,275.127,149.467Z" transform="translate(-248.843 -130.985)" fill="#fff" stroke="#263238" stroke-linecap="round" stroke-linejoin="round" stroke-width="1"/>
      </g>
      <rect id="Rectangle_61" data-name="Rectangle 61" width="134.666" height="86.358" transform="translate(9.739 156.962)" opacity="0.2"/>
      <line id="Line_6" data-name="Line 6" x2="36.203" transform="translate(48.308 164.718)" fill="none" stroke="#263238" stroke-linecap="round" stroke-linejoin="round" stroke-width="2"/>
      <line id="Line_7" data-name="Line 7" x2="81.187" transform="translate(48.308 172.482)" fill="none" stroke="#263238" stroke-linecap="round" stroke-linejoin="round" stroke-width="1"/>
      <line id="Line_8" data-name="Line 8" x2="81.187" transform="translate(48.308 179.718)" fill="none" stroke="#263238" stroke-linecap="round" stroke-linejoin="round" stroke-width="1"/>
      <line id="Line_9" data-name="Line 9" x2="81.187" transform="translate(48.308 186.961)" fill="none" stroke="#263238" stroke-linecap="round" stroke-linejoin="round" stroke-width="1"/>
      <line id="Line_10" data-name="Line 10" x2="81.187" transform="translate(48.308 194.197)" fill="none" stroke="#263238" stroke-linecap="round" stroke-linejoin="round" stroke-width="1"/>
      <rect id="Rectangle_62" data-name="Rectangle 62" width="49.642" height="34.65" transform="translate(48.308 200.921)" fill="#fff" stroke="#263238" stroke-miterlimit="10" stroke-width="1"/>
      <line id="Line_11" data-name="Line 11" y1="34.643" x2="49.642" transform="translate(48.308 200.921)" fill="#fff" stroke="#263238" stroke-miterlimit="10" stroke-width="1"/>
      <path id="Path_142" data-name="Path 142" d="M207.4,306.952a14.231,14.231,0,1,1,14.231-14.223A14.231,14.231,0,0,1,207.4,306.952Z" transform="translate(-180.869 -118.046)" fill="#dfc25a"/>
      <path id="Path_143" data-name="Path 143" d="M207.278,278.754a13.854,13.854,0,1,1-13.846,13.852,13.854,13.854,0,0,1,13.846-13.852m0-.754a14.608,14.608,0,1,0,14.608,14.608A14.608,14.608,0,0,0,207.278,278Z" transform="translate(-180.746 -117.925)" fill="#263238"/>
      <g id="Group_1642" data-name="Group 1642" transform="translate(8.518 156.65)" clip-path="url(#clip-path-2)">
        <path id="Path_144" data-name="Path 144" d="M208.233,284.033s.143-1.342.927-1.342.565.279,1.274,0,.754-.92,1.2-.43-.211.92.43.754.852-.573,1.131-.354a1.96,1.96,0,0,1,.43.422l.136.286a.7.7,0,0,0-1.063-.143c-.633.5-1.131.633-1.274.279s-.987-.211-.987,0a1.071,1.071,0,0,1-.211.5s1.907-.068,2.472-.068.927-.5,1.771-.211a4.349,4.349,0,0,1,1.915.987c.354.43-.279,1.063-.143,1.417s1.628.641,1.628,1.138-.633.633.075.987,1.342.754,1.206,1.206-.573.92-.43,1.342.995,1.138.641,1.56-.641.143-.5.708.641,1.7.211,1.915-.92.5-.852,1.063.219.987-.136,1.342-1.274.43-1.274,1.281-.075,1.131-.43,1.342-.987-.143-1.206.565a1.168,1.168,0,0,1-1.508.641c-.422-.143-.754-.422-1.063.354s-.709.92-1.274.754a1.658,1.658,0,0,0-1.628.5,1.183,1.183,0,0,1-1.508.143c-.422-.286-.754-.92-1.063-.354s-1.063,1.131-1.417.709-.633-1.138-1.063-.709a1,1,0,0,1-1.41-.075,1.507,1.507,0,0,0-1.417-.565c-.573.143-1.281.211-1.349-.49s-.068-1.206-.641-1.063-1.417.422-1.508-.286-.068-1.131-.5-1.131-1.131-.5-1.063-.927.219-1.907,0-1.907-.565-.573-.354-1.274.219-1.281,0-1.349a1.1,1.1,0,0,1-.068-1.417c.422-.565.565-.995.143-1.274a.942.942,0,0,1-.143-1.417,2.028,2.028,0,0,0,.641-1.206c0-.354.844-1.206,1.131-1.417a1.839,1.839,0,0,0,.565-1.508c0-.754.143-.852,1.417-1.417a6.211,6.211,0,0,0,2.058-1.349,2.88,2.88,0,0,1,2.4-.143C205.188,282.774,207.245,282.4,208.233,284.033Z" transform="translate(-190.106 -275.58)" fill="#263238" stroke="#263238" stroke-linecap="round" stroke-linejoin="round" stroke-width="1"/>
        <path id="Path_145" data-name="Path 145" d="M205.338,303.472c-.06,1.063.264,1.945.754,1.967s.9-.807.957-1.869-.264-1.937-.754-1.96S205.4,302.416,205.338,303.472Z" transform="translate(-192.381 -280.389)" fill="none" stroke="#fff" stroke-linecap="round" stroke-linejoin="round" stroke-width="1"/>
        <path id="Path_146" data-name="Path 146" d="M217.79,302.238c.181.98.678,1.711,1.116,1.636s.648-.942.475-1.922-.678-1.719-1.116-1.643S217.617,301.25,217.79,302.238Z" transform="translate(-195.434 -280.067)" fill="none" stroke="#fff" stroke-linecap="round" stroke-linejoin="round" stroke-width="1"/>
        <path id="Path_147" data-name="Path 147" d="M202,314.764c.565-2.435,1.334-2.947,2.5-2.9,1.771.068,2.2.354,3.4.354s.354-5.736.354-5.736a4.409,4.409,0,0,0,4.394.422s-.143,3.015.422,3.965.852,1.206,2.058.709,3.015-2.05,4.251-1.56c.354.151,1.394,1.417,2.7,4.749Z" transform="translate(-191.561 -281.588)" fill="#fff" stroke="#263238" stroke-linecap="round" stroke-linejoin="round" stroke-width="1"/>
        <path id="Path_148" data-name="Path 148" d="M210.227,291.6s1.063.068,1.206.844.068,1.063.709,1.206.987.286.987.852-.211.754.565.754.641-.49.927.219.354.92.633.92.354,2.48-.068,4.033-1.628,3.972-2.548,4.251-2.322-.648-3.332-1.508a20.35,20.35,0,0,1-2.48-3.256l-.286-.219s-.422.075-.633-.49c0,0-.075-.927.354-1.206a2.322,2.322,0,0,0,.754-1.274c0-.211-.286-.5,0-.708s.754-.43.852-.92-.565-1.138,0-1.508.92-.211.92-.709-.354-.987.068-1.274A2.216,2.216,0,0,1,210.227,291.6Z" transform="translate(-192.522 -277.897)" fill="#fff" stroke="#263238" stroke-linecap="round" stroke-linejoin="round" stroke-width="1"/>
      </g>
    </g>
    <g id="freepik--Character--inject-61" transform="translate(2.331 46.249)">
      <path id="Path_149" data-name="Path 149" d="M129.642,131.263s-.309-2.947-2.013-2.947-1.236.618-2.789,0-1.7-2.013-2.638-.927.467,2.013-.927,1.7-1.862-1.244-2.48-.754a4.311,4.311,0,0,0-.957.92l-.309.626a1.507,1.507,0,0,1,2.329-.317c1.394,1.085,2.48,1.4,2.789.626s2.171-.467,2.171,0a2.412,2.412,0,0,0,.467,1.085s-4.191-.158-5.427-.158-2.02-1.085-3.874-.467-3.415,1.244-4.191,2.171.626,2.329.309,3.105-3.565,1.394-3.565,2.48,1.4,1.394-.151,2.171-2.947,1.7-2.638,2.631,1.244,2.02.935,2.947-2.171,2.48-1.394,3.407,1.394.317,1.078,1.553-1.394,3.724-.46,4.183,2.013,1.085,1.862,2.329-.467,2.171.309,2.947,2.789.927,2.789,2.789.151,2.48.927,2.947,2.171-.309,2.638,1.236,2.322,1.7,3.256,1.394,1.7-.927,2.322.754,1.553,2.013,2.789,1.7a3.666,3.666,0,0,1,3.573,1.085c.626.927,2.322.935,3.249.309s1.711-2.013,2.329-.754,2.322,2.48,3.1,1.545,1.394-2.48,2.329-1.545a2.186,2.186,0,0,0,3.1-.158,3.234,3.234,0,0,1,3.1-1.244c1.244.317,2.8.467,2.947-1.078s.158-2.638,1.394-2.329,3.105.927,3.256-.618.158-2.48,1.085-2.48,2.48-1.085,2.329-2.02-.467-4.183,0-4.183,1.236-1.236.754-2.789-.46-2.789,0-2.947,1.085-1.862.158-3.1-1.244-2.171-.309-2.789a2.065,2.065,0,0,0,.309-3.105,4.4,4.4,0,0,1-1.394-2.631c0-.769-1.862-2.638-2.48-3.105a3.953,3.953,0,0,1-1.244-3.256c0-1.749-.309-1.854-3.1-3.1a13.462,13.462,0,0,1-4.523-2.947c-1.085-.927-4.033-.927-5.276-.309S131.813,127.7,129.642,131.263Z" transform="translate(-81.071 -126.988)" fill="#263238" stroke="#263238" stroke-linecap="round" stroke-linejoin="round" stroke-width="1"/>
      <path id="Path_150" data-name="Path 150" d="M151.476,173.8c.136,2.314-.588,4.236-1.605,4.3s-1.96-1.771-2.1-4.085.58-4.236,1.605-4.3S151.34,171.491,151.476,173.8Z" transform="translate(-91.576 -137.51)" fill="none" stroke="#fff" stroke-linecap="round" stroke-linejoin="round" stroke-width="1"/>
      <path id="Path_151" data-name="Path 151" d="M124.212,171.091c-.384,2.156-1.508,3.769-2.435,3.588s-1.425-2.058-1.04-4.213,1.508-3.769,2.442-3.58S124.6,168.943,124.212,171.091Z" transform="translate(-84.89 -136.809)" fill="none" stroke="#fff" stroke-linecap="round" stroke-linejoin="round" stroke-width="1"/>
      <path id="Path_152" data-name="Path 152" d="M102.27,375.94s2.043,29.087,2.043,29.954-8.826,7.688-11.668,9.543-4.447,2.465-3.332,3.2,5.058,1.236,7.281.754,7.033-2.593,9.045-2.714,3.332-.249,3.332-2.352-.859-8.141-.754-9.746,2.714-26.9,2.714-26.9Z" transform="translate(-77.096 -188.291)" fill="#fff" stroke="#263238" stroke-linecap="round" stroke-linejoin="round" stroke-width="1"/>
      <path id="Path_153" data-name="Path 153" d="M105.562,428.121c1.975-.128,3.332-.249,3.332-2.352,0-.754-.113-2.02-.249-3.4a22.469,22.469,0,0,1-8.759,4.146,4.814,4.814,0,0,1-4.349-1.606c-1.146.754-2.2,1.508-2.932,1.975-2.842,1.847-4.447,2.465-3.332,3.2s5.058,1.236,7.281.754S103.617,428.227,105.562,428.121Z" transform="translate(-77.086 -199.724)" fill="#263238" stroke="#263238" stroke-linecap="round" stroke-linejoin="round" stroke-width="1"/>
      <path id="Path_154" data-name="Path 154" d="M135.6,378.5s6.912,22.462,8.02,26.653,2.1,10.99,4.447,15.075,4.319,2.344,4.191-2.1-4.44-11.728-5.178-13.454-3.09-28.386-3.09-28.386S139.3,378.5,135.6,378.5Z" transform="translate(-88.582 -188.377)" fill="#fff" stroke="#263238" stroke-linecap="round" stroke-linejoin="round" stroke-width="1"/>
      <path id="Path_155" data-name="Path 155" d="M151.875,426.121c-1.259.128-2.51-1.055-3.445-2.261a31.847,31.847,0,0,0,2.827,8.05c2.344,4.07,4.319,2.344,4.191-2.1a18.089,18.089,0,0,0-1.508-5.789C153.571,425.081,152.968,426.016,151.875,426.121Z" transform="translate(-91.741 -200.091)" fill="#263238" stroke="#263238" stroke-linecap="round" stroke-linejoin="round" stroke-width="1"/>
      <path id="Path_156" data-name="Path 156" d="M116.024,181.287s.309,6.671-.935,8.683-1.862,2.638-4.523,1.553-6.671-4.523-9.3-3.415-22.326,30.075-23.871,32.555-1.711,5.894,1.236,5.894,21.859-22.326,21.859-22.326.754,8.992,2.013,13.334,3.415,6.512,2.329,11.306-9.8,11.306-11.781,25.273,4.342,61.537,4.8,65.878.935,8.992.935,8.992,6.2,3.874,17.336,3.724,14.495-3.414,14.495-3.414,4.8-46.039,4.96-46.966,2.661-22.56,1.417-32.487-6.226-18.844-6.535-21.15,2.329-7.289,2.48-9.61,2.171-6.671,2.171-6.671,2.789,16.9,4.523,18.452,6.663,2.631,6.663-2.8-3.874-26.042-5.276-29.758-3.256-6.362-7.131-6.2-4.809.754-7.44.754-.754-12.558-.754-12.558A9.61,9.61,0,0,1,116.024,181.287Z" transform="translate(-73.98 -140.123)" fill="#fff" stroke="#263238" stroke-linecap="round" stroke-linejoin="round" stroke-width="1"/>
      <path id="Path_157" data-name="Path 157" d="M135.984,341.6s4.8-46.039,4.96-46.966,2.661-22.56,1.417-32.487-6.226-18.844-6.535-21.15c-.279-2.111,1.854-6.377,2.374-8.887-16.99,3.083-26.095.219-30.15-1.915,1.251,4.1,3.271,6.286,2.216,10.952-1.085,4.809-9.8,11.306-11.781,25.273s4.342,61.537,4.8,65.878.935,8.992.935,8.992,6.2,3.874,17.336,3.724S135.984,341.6,135.984,341.6Z" transform="translate(-79.348 -152.403)" fill="#dfc25a" stroke="#263238" stroke-linecap="round" stroke-linejoin="round" stroke-width="1"/>
      <path id="Path_158" data-name="Path 158" d="M105.263,366.862c4.364-2.005,5.94-8.216,9.467-4.3s6.234,8.947,10.387,4.922,3.121-7.161,6.784-6.271c3.113.754,4.319,7.417,5.9,7.093.286-2.691.754-6.942,1.236-11.766l-.384.648c-2.08,3.58-3.113-5.367-6.784-6.264s-2.6,2.261-6.784,6.264-6.784-.9-10.387-4.922-5.193,2.683-9.874,4.477a3.434,3.434,0,0,1-.716.181c.317,2.585.543,4.387.611,5.08.2,1.884.407,3.822.573,5.412A3.413,3.413,0,0,0,105.263,366.862Z" transform="translate(-80.827 -182.092)" fill="#263238" stroke="#263238" stroke-linecap="round" stroke-linejoin="round" stroke-width="1"/>
      <path id="Path_159" data-name="Path 159" d="M125,299.63s2.1,20.63,6.316,36.18" transform="translate(-85.971 -169.5)" fill="none" stroke="#263238" stroke-linecap="round" stroke-linejoin="round" stroke-width="1"/>
      <path id="Path_160" data-name="Path 160" d="M120,290.13s1.266,12.633,2.525,15.58" transform="translate(-84.74 -167.161)" fill="none" stroke="#263238" stroke-linecap="round" stroke-linejoin="round" stroke-width="1"/>
      <path id="Path_161" data-name="Path 161" d="M99.07,197.35s6.927,7.816,21.105,9.716,23.366-4.523,23.366-4.523,2.45,9.663,4.907,13.794,2.57,4.357,1.455,5.367-3.354.889-4.244,2.344-1,3.241-3.354,3.347-4.349-1.116-5.8-.558-1.455,2.126-4.47,2.344-6.919-2.118-8.291-1.229-2.261,2.352-4.8,1.9-3.241-3.46-5.367-3.46-3.347,2.261-5.359,1.786-2.57-4.018-4.462-4.244-3.58,1.786-5.367,1-1.9-3.9-3.9-5.02-4.138-.452-5.367-1.229-2.563-3.912-2.563-3.912Z" transform="translate(-76.503 -144.314)" fill="#dfc25a" stroke="#263238" stroke-linecap="round" stroke-linejoin="round" stroke-width="1"/>
      <path id="Path_162" data-name="Path 162" d="M148.5,221.173a4.192,4.192,0,0,0-2.495,1.508c-.9,1.455-1,3.241-3.354,3.354s-4.349-1.116-5.8-.558-1.455,2.118-4.47,2.344-6.919-2.126-8.291-1.229-2.261,2.344-4.8,1.9-3.241-3.467-5.367-3.467-3.347,2.261-5.359,1.786-2.57-4.017-4.462-4.244-3.58,1.786-5.367,1.01-1.9-3.912-3.9-5.028-4.138-.445-5.367-1.229a3.58,3.58,0,0,1-.8-.791l-2.133,3.015s1.334,3.128,2.563,3.912,3.354.106,5.367,1.229,2.118,4.244,3.9,5.02,3.467-1.229,5.367-1,2.45,3.769,4.462,4.244,3.241-1.786,5.359-1.786,2.8,3.015,5.367,3.46,3.46-1,4.8-1.9,5.276,1.455,8.291,1.229,3.015-1.786,4.47-2.344,3.46.671,5.8.558,2.457-1.9,3.354-3.347,3.128-1.342,4.244-2.344S150.886,225.176,148.5,221.173Z" transform="translate(-76.498 -149.037)" fill="#263238" stroke="#263238" stroke-linecap="round" stroke-linejoin="round" stroke-width="1"/>
      <path id="Path_163" data-name="Path 163" d="M154.242,232.547s-8.525-5.276-13.794-8.525-7.756-8.216-9.618-10.7-1.545-3.249-4.334-2.94-7.756,5.11-7.756,5.887,2.638-.927,2.638-.927-2.171,2.171-1.7,2.947,2.789-.467,2.789-.467-1.085,1.7-.467,2.171,2.171-.754,2.171-.754-.467,1.394.309,1.394,3.874-2.013,3.874-2.013a12.325,12.325,0,0,0,2.48,3.565,4.87,4.87,0,0,0,2.638.927s8.525,11.163,11.63,14.419,10.379,5.736,11.932,2.947-.565-7.04-.565-7.04" transform="translate(-84.43 -147.507)" fill="#fff" stroke="#263238" stroke-linecap="round" stroke-linejoin="round" stroke-width="1"/>
      <path id="Path_164" data-name="Path 164" d="M125.94,220.8s2.638-3.565,4.342-4.033" transform="translate(-86.203 -149.096)" fill="none" stroke="#263238" stroke-linecap="round" stroke-linejoin="round" stroke-width="1"/>
      <path id="Path_165" data-name="Path 165" d="M123.68,218.852a27.14,27.14,0,0,1,4.96-4.342" transform="translate(-85.646 -148.54)" fill="none" stroke="#263238" stroke-linecap="round" stroke-linejoin="round" stroke-width="1"/>
      <path id="Path_166" data-name="Path 166" d="M122.24,215.936s3.256-3.105,4.342-3.256" transform="translate(-85.292 -148.089)" fill="none" stroke="#263238" stroke-linecap="round" stroke-linejoin="round" stroke-width="1"/>
      <rect id="Rectangle_63" data-name="Rectangle 63" width="9.46" height="20.404" transform="matrix(0.997, -0.073, 0.073, 0.997, 13.317, 55.947)" stroke-width="1" stroke="#263238" stroke-linecap="round" stroke-linejoin="round" fill="#263238"/>
      <path id="Path_167" data-name="Path 167" d="M85.725,219.21s-.912-10.862.656-11.646,9.678-3.015,9.678-2.1-.754,1.575-1.7,1.967a41.461,41.461,0,0,1-4.726,1.048l-.392,1.7s3.927-.648,4.575-.648,3.663,1.04,3.535,2.088-.52.754-.52.754a2.359,2.359,0,0,1,.648,1.44c0,.754-.392.754-.392.754h0a1.191,1.191,0,0,1-1.025,1.6c-.92.068-1.636-1.4-2.533-.829-1.018.648-1.281.543-1.281.543a37.738,37.738,0,0,1-1.96,4.319,6.6,6.6,0,0,1-2.616,2.352s-6.286,9.686-8.9,11.646-6.784-.369-5.208-4.817S85.725,219.21,85.725,219.21Z" transform="translate(-73.221 -146.26)" fill="#fff" stroke="#263238" stroke-linecap="round" stroke-linejoin="round" stroke-width="1"/>
      <path id="Path_168" data-name="Path 168" d="M102.46,214.3A9.123,9.123,0,0,0,99.5,212.97a21.248,21.248,0,0,0-3.5.776" transform="translate(-78.83 -148.161)" fill="none" stroke="#263238" stroke-linecap="round" stroke-linejoin="round" stroke-width="1"/>
      <path id="Path_169" data-name="Path 169" d="M102.928,217.191s-3.015-1.734-3.558-1.508-2.51.8-2.51.8" transform="translate(-79.042 -148.824)" fill="none" stroke="#263238" stroke-linecap="round" stroke-linejoin="round" stroke-width="1"/>
      <path id="Path_170" data-name="Path 170" d="M105.82,373.837c0-.271-.06-.565-.09-.867C105.76,373.279,105.79,373.565,105.82,373.837Z" transform="translate(-81.226 -187.56)" fill="#263238" stroke="#263238" stroke-linecap="round" stroke-linejoin="round" stroke-width="1"/>
      <path id="Path_171" data-name="Path 171" d="M148.39,377.456c0-.158.045-.4.075-.716C148.435,377.057,148.405,377.3,148.39,377.456Z" transform="translate(-91.731 -188.488)" fill="#263238" stroke="#263238" stroke-linecap="round" stroke-linejoin="round" stroke-width="1"/>
      <path id="Path_172" data-name="Path 172" d="M148.36,378Z" transform="translate(-91.724 -188.799)" fill="#263238" stroke="#263238" stroke-linecap="round" stroke-linejoin="round" stroke-width="1"/>
      <path id="Path_173" data-name="Path 173" d="M106.08,376.4v0Z" transform="translate(-81.312 -188.375)" fill="#263238" stroke="#263238" stroke-linecap="round" stroke-linejoin="round" stroke-width="1"/>
      <path id="Path_174" data-name="Path 174" d="M120.51,198s4.213,3.369,7.161,3.769" transform="translate(-84.866 -144.474)" fill="none" stroke="#263238" stroke-linecap="round" stroke-linejoin="round" stroke-width="1"/>
      <path id="Path_175" data-name="Path 175" d="M136.71,202.449a45.916,45.916,0,0,0,8.419-2.1l2.947-1.266" transform="translate(-88.855 -144.74)" fill="none" stroke="#263238" stroke-linecap="round" stroke-linejoin="round" stroke-width="1"/>
      <path id="Path_176" data-name="Path 176" d="M135.14,147.825s-2.329.151-2.638,1.854-.151,2.329-1.545,2.638-2.171.618-2.171,1.862.46,1.7-1.244,1.7-1.394-1.085-2.013.467-.754,2.013-1.394,2.013-.754,5.427.151,8.834,3.565,8.683,5.585,9.3,5.073-1.417,7.281-3.256c1.982-1.651,5.427-7.131,5.427-7.131l.618-.46s.935.151,1.394-1.085c0,0,.158-2.02-.754-2.638a5.035,5.035,0,0,1-1.7-2.789c0-.467.626-1.085,0-1.553s-1.7-.927-1.862-2.013,1.244-2.48,0-3.256-2.013-.467-2.013-1.553.754-2.171-.151-2.789S135.14,147.825,135.14,147.825Z" transform="translate(-85.634 -132.077)" fill="#fff" stroke="#263238" stroke-linecap="round" stroke-linejoin="round" stroke-width="1"/>
      <ellipse id="Ellipse_5" data-name="Ellipse 5" cx="0.724" cy="1.749" rx="0.724" ry="1.749" transform="translate(42.752 27.468)" fill="#263238"/>
      <path id="Path_177" data-name="Path 177" d="M140.516,166.823c-.173.95-.626,1.666-1.018,1.59s-.573-.9-.4-1.847.626-1.666,1.018-1.6S140.689,165.866,140.516,166.823Z" transform="translate(-89.427 -136.339)" fill="#263238"/>
      <path id="Path_178" data-name="Path 178" d="M130.76,175.46s1.138,2.208,5.676.972" transform="translate(-87.39 -138.924)" fill="none" stroke="#263238" stroke-linecap="round" stroke-linejoin="round" stroke-width="1"/>
      <path id="Path_179" data-name="Path 179" d="M127.21,161.251s2.472-1.854,4.741,0" transform="translate(-86.516 -135.222)" fill="none" stroke="#263238" stroke-linecap="round" stroke-linejoin="round" stroke-width="1"/>
      <path id="Path_180" data-name="Path 180" d="M137.87,161.97s3.09-1.44,5.563,2.261" transform="translate(-89.141 -135.534)" fill="none" stroke="#263238" stroke-linecap="round" stroke-linejoin="round" stroke-width="1"/>
      <path id="Path_181" data-name="Path 181" d="M132.714,169.43a2.811,2.811,0,0,0-.384,1.025A1.741,1.741,0,0,0,134,172.121a1.605,1.605,0,0,0,1.666-2.05" transform="translate(-87.776 -137.439)" fill="none" stroke="#263238" stroke-linecap="round" stroke-linejoin="round" stroke-width="1"/>
    </g>
  </g>
</svg>
