<svg xmlns="http://www.w3.org/2000/svg" viewBox="0 0 333333 333333" shape-rendering="geometricPrecision" text-rendering="geometricPrecision" image-rendering="optimizeQuality" fill-rule="evenodd" clip-rule="evenodd"><defs><linearGradient id="a" gradientUnits="userSpaceOnUse" x1="161434" y1="81394.5" x2="161434" y2="160649"><stop offset="0" stop-color="#0ad778"/><stop offset="1" stop-color="#01ef75"/></linearGradient><linearGradient id="c" gradientUnits="userSpaceOnUse" x1="157388" y1="171418" x2="157388" y2="242609"><stop offset="0" stop-color="#fe3e4a"/><stop offset="1" stop-color="#e31f50"/></linearGradient><linearGradient id="d" gradientUnits="userSpaceOnUse" x1="194461" y1="166716" x2="244828" y2="166716"><stop offset="0" stop-color="#febe00"/><stop offset="1" stop-color="#ffd900"/></linearGradient><linearGradient id="b" gradientUnits="userSpaceOnUse" x1="141807" y1="118463" x2="141807" y2="209850"><stop offset="0" stop-color="#02c4ff"/><stop offset="1" stop-color="#01e2ff"/></linearGradient></defs><path d="M302077 0H31255C14069 0 1 14068 1 31256v270822c0 17186 14068 31254 31254 31254h270822c17186 0 31254-14068 31254-31254l2-270824C333333 14068 319265 0 302079 0h-2z"/><path d="M110032 80796c154-10 310-17 467-21 6696-190 10194 2815 15681 6048l86657 50027-27216 24607-75589-80661z" fill="url(#a)"/><path d="M110737 81034l74878 80344-83611 87396c-536-635-1005-1338-1410-2099-2594-4883-1867-12399-1867-17910V103729c0-3690-274-8131 333-11979 853-5400 8596-12211 11676-10716z" fill="url(#b)"/><path d="M212794 196585l-91554 53088c-3021 1752-4489 2488-8117 2893-753 84-10443-3762-11140-3769l83631-87418 27180 35206z" fill="url(#c)"/><path d="M212808 136832l26703 15419c3685 2128 6878 3689 9650 7091 4514 5542 3926 11894-2579 17242-2874 2363-6755 4326-10000 6207l-23863 13808-27107-35222 27196-24545z" fill="url(#d)"/></svg>