<svg width="202" height="111" viewBox="0 0 202 111" fill="none" xmlns="http://www.w3.org/2000/svg">
<g clip-path="url(#clip0_1031_252)">
<g clip-path="url(#clip1_1031_252)">
<rect width="181" height="48.7308" transform="translate(11 0.634613)" fill="white"/>
<path d="M192.004 0.614624H11V49.379H192.004V0.614624Z" fill="url(#paint0_linear_1031_252)"/>
<path d="M63.3072 58.9758C12.1922 42.6704 14.3778 54.4814 -11.2496 54.6427L3.98473 -10.9217C21.0231 -17.7407 24.4594 -11.3594 74.4504 -0.46041L158.805 57.2547C138.421 59.8629 114.422 75.2813 63.3072 58.9758Z" fill="url(#paint1_linear_1031_252)" fill-opacity="0.6"/>
<path d="M97.3593 0.634613L11 1.3533L12.9582 24.454L38.2044 25.0723C53.5007 23.4661 69.0188 26.3638 77.8865 32.739L93.3374 43.847C95.6991 45.5474 98.8645 46.9384 102.56 47.8999C106.256 48.8614 110.37 49.3644 114.548 49.3654H192V31.8834C192 28.5035 185.382 26.0917 178.862 27.0956L141.163 34.0456C137.498 34.4374 133.676 34.2455 130.246 33.4976C126.816 32.7497 123.955 31.4843 122.075 29.8835L97.3593 0.634613Z" fill="url(#paint2_linear_1031_252)"/>
<ellipse cx="87.4571" cy="24.9768" rx="33.1655" ry="19.3763" fill="url(#paint3_radial_1031_252)"/>
<ellipse cx="122.994" cy="40.135" rx="62.1968" ry="24.5742" fill="url(#paint4_radial_1031_252)" fill-opacity="0.7"/>
<ellipse rx="39.7833" ry="15.9" transform="matrix(0.98843 0.151679 -0.523783 0.851852 127.914 44.2233)" fill="url(#paint5_radial_1031_252)" fill-opacity="0.7"/>
<path d="M105.102 -0.471307L10.567 0.32528L12.7107 25.93L40.347 26.6154C57.0916 24.8351 74.0788 28.0469 83.7861 35.113L100.7 47.4252C103.285 49.3099 106.75 50.8517 110.796 51.9174C114.841 52.9831 119.345 53.5406 123.919 53.5417H208.703L217.629 20.6481C217.629 16.9018 210.384 14.2286 203.247 15.3413L199.102 -4.91917C195.091 -4.48493 190.906 -4.69758 187.152 -5.52655C183.397 -6.35552 180.265 -7.75807 178.207 -9.53246L105.102 -0.471307Z" fill="url(#paint6_linear_1031_252)"/>
</g>
<g clip-path="url(#clip2_1031_252)">
<path d="M33.1994 20.5283C32.8038 20.5283 32.2296 20.9328 32.0246 21.3135C31.398 22.5056 30.9428 23.7809 30.34 24.9849C30.0159 25.6297 30.1636 26.0127 30.6259 26.5243C31.8602 27.902 33.1398 29.2677 34.1644 30.8072C35.3892 32.6393 35.2248 34.5928 33.6617 36.1275C32.472 37.313 31.0965 38.2968 29.5894 39.0398C27.4305 40.0629 25.0953 40.7054 22.8554 41.5738C22.5457 41.6928 22.062 42.0949 22.0214 42.359C21.8928 43.187 22.3527 43.4321 22.6624 43.5654C25.2407 44.6837 27.8618 45.7139 30.5783 46.8203C31.4528 45.5022 32.3416 44.2768 33.1136 42.9824C37.286 35.9942 38.2034 28.7942 34.3718 21.3492C34.1716 20.959 33.6069 20.5354 33.1994 20.5283Z" fill="black"/>
<path d="M125.625 11.47L125.535 11.3796C125.24 11.0843 124.889 10.8501 124.503 10.6903C124.117 10.5305 123.703 10.4482 123.285 10.4482C122.868 10.4482 122.454 10.5305 122.068 10.6903C121.682 10.8501 121.331 11.0843 121.036 11.3796V11.3796C120.741 11.6744 120.506 12.0243 120.347 12.4095C120.187 12.7947 120.104 13.2076 120.104 13.6245C120.104 14.0415 120.187 14.4544 120.347 14.8395C120.506 15.2247 120.741 15.5747 121.036 15.8695L121.129 15.9623C122.926 17.7563 124.942 16.6451 125.625 15.9623C125.921 15.6675 126.156 15.3173 126.316 14.9319C126.476 14.5465 126.558 14.1334 126.558 13.7161C126.558 13.2989 126.476 12.8858 126.316 12.5004C126.156 12.1149 125.921 11.7648 125.625 11.47V11.47Z" fill="black"/>
<path d="M112.4 11.5961C112.085 11.9092 111.835 12.2822 111.667 12.693L116.492 16.8688C116.737 16.7264 116.963 16.5529 117.164 16.3525L117.261 16.2549C119.168 14.3514 117.988 12.2243 117.261 11.4962C116.949 11.1837 116.577 10.9358 116.168 10.7666C115.759 10.5975 115.321 10.5104 114.879 10.5104C114.436 10.5104 113.998 10.5975 113.589 10.7666C113.18 10.9358 112.809 11.1837 112.496 11.4962L112.4 11.5961Z" fill="black"/>
<path d="M142.038 19.8573C141.154 20.7782 140.462 21.8652 140.001 23.0552L154.117 34.7498C154.814 34.3241 155.454 33.8124 156.023 33.227L156.297 32.9391C161.635 27.3595 158.127 21.3159 155.995 19.2767C155.077 18.399 153.995 17.7104 152.811 17.2501C151.626 16.7899 150.363 16.5672 149.092 16.5946C147.822 16.622 146.569 16.899 145.406 17.4098C144.242 17.9206 143.191 18.6553 142.312 19.5718L142.038 19.8573Z" fill="black"/>
<path d="M171.176 36.0941C176.577 36.0941 180.955 31.7222 180.955 26.3292C180.955 20.9362 176.577 16.5642 171.176 16.5642C165.775 16.5642 161.397 20.9362 161.397 26.3292C161.397 31.7222 165.775 36.0941 171.176 36.0941Z" fill="black"/>
<path d="M40.741 9.4452C40.741 9.4452 39.5496 11.9126 39.0134 13.1737C38.7824 13.6981 38.6685 14.2664 38.6798 14.8392C38.8776 19.2315 39.054 23.6286 39.378 28.0114C39.7069 32.4775 41.9086 35.7372 46.05 37.6193C48.9452 38.9351 52.0071 39.5347 55.1525 39.7156C59.1152 39.9416 63.0874 40.0582 67.0548 40.0915C73.6505 40.1486 80.1962 39.6799 86.6537 38.3879C88.6434 38.1285 94.8674 36.5201 95.9469 35.9347C97.1621 35.2756 97.0811 35.4327 98.3059 35.742C101.275 36.4939 109.114 36.3083 111.371 35.6444C112.882 35.1971 114.261 34.8402 114.6 33.8052C115.987 35.9871 116.761 37.0959 119.151 36.8817C121.541 36.6676 121.741 36.551 124.084 36.0299C126.037 35.5969 127.479 34.3382 128.065 32.4347C128.43 31.2569 128.382 30.693 128.485 29.8174C128.847 26.7028 128.363 23.75 126.564 21.1303C126.273 20.7091 126.088 20.2904 125.068 20.357C124.748 20.376 124.272 20.8519 124.076 21.235C123.483 22.3961 123.035 23.6286 122.447 24.804C122.115 25.4607 122.265 25.9271 122.783 26.403C123.881 27.4071 124.894 28.4064 126.266 29.7912C123.645 30.0672 122.744 30.348 120.488 30.524C118.231 30.7001 114.095 30.6668 112.934 28.6205C112.084 27.1287 111.535 26.0984 110.156 25.08C107.856 23.3812 104.139 23.3931 101.034 24.992C99.6308 25.7058 98.1534 27.1334 97.9127 28.799C97.8055 29.5485 97.5481 30.1671 96.7022 30.3837C83.8348 33.6838 68.7586 35.2257 56.0913 33.81C52.8649 33.4483 49.6576 32.9177 46.6124 31.728C43.8888 30.6692 42.6592 28.7895 42.7092 25.851C42.7998 20.4379 42.7426 15.0248 42.7092 9.61175C42.7226 9.47098 42.7073 9.32896 42.6642 9.19427C42.6211 9.05957 42.5511 8.93499 42.4585 8.82804C42.3659 8.72109 42.2525 8.63398 42.1252 8.57198C41.9979 8.50997 41.8594 8.47436 41.718 8.46728C41.301 8.43158 40.741 9.4452 40.741 9.4452ZM110.32 31.9255L99.7928 31.7994C99.7928 31.7994 100.572 27.6474 104.854 27.4856C111.016 27.2643 110.315 31.9255 110.315 31.9255H110.32Z" fill="black"/>
<path d="M26.3344 9.94723C26.3478 9.806 26.3323 9.66354 26.2887 9.52852C26.2451 9.3935 26.1745 9.26875 26.0811 9.16188C25.9876 9.05502 25.8734 8.96827 25.7453 8.90694C25.6172 8.8456 25.478 8.81096 25.336 8.80513C24.9095 8.76944 24.359 9.78067 24.359 9.78067C24.359 9.78067 23.1676 12.2505 22.6315 13.5091C22.4005 14.0336 22.2866 14.6019 22.2979 15.1747C22.3956 17.3328 22.4885 19.4909 22.5957 21.649C22.7387 24.7152 22.8841 27.783 23.0318 30.8524C23.1223 32.7368 23.2272 34.6213 23.3249 36.5462H25.0739C25.5052 34.4048 26.2463 32.2895 26.2963 30.1624C26.3559 27.3 26.3535 13.8232 26.3344 9.94723Z" fill="black"/>
</g>
</g>
<path d="M37.0475 101.504L37.6715 99.536C39.2395 99.536 40.5355 99.48 41.5595 99.368C42.5835 99.24 43.3755 99.048 43.9355 98.792C44.5115 98.52 44.9115 98.176 45.1355 97.76C45.3595 97.328 45.4555 96.808 45.4235 96.2L44.9675 83.864H46.9115L47.3915 95.984C47.4235 96.8 47.5515 97.44 47.7755 97.904C48.0155 98.368 48.3355 98.696 48.7355 98.888C49.1355 99.064 49.5755 99.152 50.0555 99.152C50.3915 99.152 50.6315 99.248 50.7755 99.44C50.9355 99.616 51.0155 99.832 51.0155 100.088C51.0155 100.344 50.9035 100.584 50.6795 100.808C50.4555 101.016 50.1675 101.12 49.8155 101.12C49.0635 101.12 48.4555 101.008 47.9915 100.784C47.5275 100.544 47.1675 100.248 46.9115 99.896C46.6715 99.544 46.5115 99.176 46.4315 98.792L46.9355 98.816C46.6155 99.312 46.1835 99.736 45.6395 100.088C45.0955 100.424 44.4235 100.696 43.6235 100.904C42.8235 101.112 41.8795 101.264 40.7915 101.36C39.7195 101.456 38.4715 101.504 37.0475 101.504ZM36.4235 96.104L35.9675 94.592C36.6395 94.416 37.1835 94.264 37.5995 94.136C38.0155 94.008 38.3115 93.888 38.4875 93.776C38.6795 93.648 38.7755 93.52 38.7755 93.392C38.7755 93.216 38.6795 93.056 38.4875 92.912C38.3115 92.752 38.1035 92.592 37.8635 92.432C37.6395 92.256 37.4315 92.056 37.2395 91.832C37.0635 91.608 36.9755 91.336 36.9755 91.016C36.9755 90.728 37.0555 90.432 37.2155 90.128C37.3915 89.808 37.6955 89.48 38.1275 89.144C38.5595 88.792 39.1675 88.424 39.9515 88.04L40.6955 89.408C39.9595 89.76 39.4155 90.064 39.0635 90.32C38.7275 90.56 38.5595 90.776 38.5595 90.968C38.5595 91.112 38.6475 91.264 38.8235 91.424C39.0155 91.584 39.2235 91.76 39.4475 91.952C39.6875 92.144 39.8955 92.368 40.0715 92.624C40.2635 92.864 40.3595 93.152 40.3595 93.488C40.3595 93.712 40.3115 93.936 40.2155 94.16C40.1195 94.368 39.9275 94.584 39.6395 94.808C39.3675 95.016 38.9755 95.232 38.4635 95.456C37.9515 95.664 37.2715 95.88 36.4235 96.104ZM37.0475 101.504C35.6235 101.504 34.3675 101.408 33.2795 101.216C32.2075 101.04 31.3115 100.76 30.5915 100.376C29.8715 99.992 29.3275 99.496 28.9595 98.888C28.5915 98.264 28.4075 97.512 28.4075 96.632C28.4075 96.232 28.4395 95.824 28.5035 95.408C28.5675 94.976 28.6475 94.544 28.7435 94.112C28.8555 93.68 28.9675 93.264 29.0795 92.864L30.8795 93.32C30.8155 93.56 30.7435 93.848 30.6635 94.184C30.5835 94.504 30.5115 94.832 30.4475 95.168C30.3995 95.504 30.3755 95.808 30.3755 96.08C30.3755 96.912 30.5835 97.584 30.9995 98.096C31.4315 98.592 32.1755 98.96 33.2315 99.2C34.2875 99.424 35.7675 99.536 37.6715 99.536L38.1515 100.736L37.0475 101.504ZM49.8125 101.12L50.0525 99.152C50.9965 99.152 51.7325 99.12 52.2605 99.056C52.7885 98.976 53.1645 98.792 53.3885 98.504C53.6125 98.2 53.7245 97.728 53.7245 97.088C53.7245 96.688 53.6605 96.216 53.5325 95.672C53.4045 95.112 53.2365 94.52 53.0285 93.896C52.8205 93.272 52.5965 92.656 52.3565 92.048L54.3005 91.328C54.5085 91.84 54.7005 92.424 54.8765 93.08C55.0685 93.736 55.2285 94.384 55.3565 95.024C55.4845 95.664 55.5485 96.224 55.5485 96.704C55.5485 97.504 55.4365 98.184 55.2125 98.744C55.0045 99.304 54.6685 99.76 54.2045 100.112C53.7405 100.464 53.1405 100.72 52.4045 100.88C51.6845 101.04 50.8205 101.12 49.8125 101.12ZM55.0445 88.832C54.7085 88.832 54.4205 88.72 54.1805 88.496C53.9565 88.256 53.8445 87.976 53.8445 87.656C53.8445 87.336 53.9565 87.056 54.1805 86.816C54.4205 86.576 54.7085 86.456 55.0445 86.456C55.3645 86.456 55.6365 86.576 55.8605 86.816C56.1005 87.056 56.2205 87.336 56.2205 87.656C56.2205 87.976 56.1005 88.256 55.8605 88.496C55.6365 88.72 55.3645 88.832 55.0445 88.832ZM51.7565 88.832C51.4205 88.832 51.1325 88.72 50.8925 88.496C50.6685 88.256 50.5565 87.976 50.5565 87.656C50.5565 87.336 50.6685 87.056 50.8925 86.816C51.1325 86.576 51.4205 86.456 51.7565 86.456C52.0765 86.456 52.3485 86.576 52.5725 86.816C52.8125 87.056 52.9325 87.336 52.9325 87.656C52.9325 87.976 52.8125 88.256 52.5725 88.496C52.3485 88.72 52.0765 88.832 51.7565 88.832ZM63.9684 101.12C62.6884 101.12 61.7044 100.976 61.0164 100.688C60.3444 100.4 59.8804 99.952 59.6244 99.344C59.3684 98.736 59.2244 97.952 59.1924 96.992L58.7124 83.864H60.6804L61.1604 96.224C61.1924 97.008 61.2644 97.616 61.3764 98.048C61.5044 98.464 61.7764 98.752 62.1924 98.912C62.6244 99.072 63.2964 99.152 64.2084 99.152C64.5444 99.152 64.7844 99.248 64.9284 99.44C65.0884 99.616 65.1684 99.832 65.1684 100.088C65.1684 100.344 65.0564 100.584 64.8324 100.808C64.6084 101.016 64.3204 101.12 63.9684 101.12ZM63.9688 101.12L64.2088 99.152C65.2168 99.152 65.9928 99.144 66.5368 99.128C67.0968 99.112 67.5048 99.096 67.7608 99.08C68.0168 99.048 68.1928 99.032 68.2888 99.032C68.0008 98.872 67.6648 98.624 67.2808 98.288C66.8968 97.936 66.5608 97.496 66.2728 96.968C65.9848 96.424 65.8408 95.784 65.8408 95.048C65.8408 94.136 66.0488 93.336 66.4648 92.648C66.8968 91.96 67.4808 91.424 68.2168 91.04C68.9688 90.656 69.8248 90.464 70.7848 90.464C71.1528 90.464 71.5448 90.496 71.9608 90.56C72.3768 90.624 72.7768 90.72 73.1608 90.848L72.7528 92.696C72.4328 92.616 72.0968 92.552 71.7448 92.504C71.3928 92.456 71.0728 92.432 70.7848 92.432C70.2088 92.432 69.6968 92.544 69.2488 92.768C68.8008 92.976 68.4488 93.272 68.1928 93.656C67.9368 94.04 67.8088 94.504 67.8088 95.048C67.8088 95.464 67.8968 95.848 68.0728 96.2C68.2488 96.536 68.4808 96.84 68.7688 97.112C69.0568 97.384 69.3768 97.608 69.7288 97.784C70.0808 97.96 70.4248 98.096 70.7608 98.192C71.1128 98.288 71.4248 98.328 71.6968 98.312C71.8888 98.248 72.0648 98.192 72.2248 98.144C72.3848 98.096 72.5608 98.04 72.7528 97.976C72.9608 97.896 73.2088 97.792 73.4968 97.664C73.8008 97.536 74.1848 97.368 74.6488 97.16L75.3208 98.912C74.2488 99.344 73.1528 99.728 72.0328 100.064C70.9288 100.4 69.7208 100.664 68.4088 100.856C67.1128 101.032 65.6328 101.12 63.9688 101.12ZM77.4311 106.52L76.9991 104.552C77.9591 104.424 78.8391 104.24 79.6391 104C80.4551 103.776 81.1511 103.448 81.7271 103.016C82.3191 102.584 82.7751 102.016 83.0951 101.312C83.4151 100.608 83.5751 99.728 83.5751 98.672C83.5751 97.584 83.3751 96.68 82.9751 95.96C82.5751 95.24 82.0551 94.88 81.4151 94.88C81.0791 94.88 80.7671 95.008 80.4791 95.264C80.1911 95.52 79.9511 95.864 79.7591 96.296C79.5831 96.728 79.4951 97.2 79.4951 97.712C79.4951 98 79.5591 98.24 79.6871 98.432C79.8151 98.608 79.9991 98.752 80.2391 98.864C80.4951 98.96 80.8151 99.032 81.1991 99.08C81.5831 99.128 82.0311 99.152 82.5431 99.152H87.6071C87.9431 99.152 88.1831 99.248 88.3271 99.44C88.4871 99.616 88.5671 99.832 88.5671 100.088C88.5671 100.344 88.4551 100.584 88.2311 100.808C88.0071 101.016 87.7191 101.12 87.3671 101.12H81.6311C80.9111 101.12 80.2391 101.016 79.6151 100.808C79.0071 100.6 78.5111 100.28 78.1271 99.848C77.7591 99.4 77.5751 98.816 77.5751 98.096C77.5751 97.424 77.6791 96.784 77.8871 96.176C78.0951 95.552 78.3751 95 78.7271 94.52C79.0951 94.024 79.5191 93.632 79.9991 93.344C80.4951 93.056 81.0311 92.912 81.6071 92.912C82.3431 92.912 82.9991 93.128 83.5751 93.56C84.1511 93.992 84.6071 94.648 84.9431 95.528C85.2791 96.392 85.4471 97.488 85.4471 98.816C85.4471 100.304 85.1431 101.584 84.5351 102.656C83.9431 103.744 83.0471 104.608 81.8471 105.248C80.6631 105.888 79.1911 106.312 77.4311 106.52ZM87.3594 101.12L87.5994 99.152C87.9994 99.152 88.4394 99.152 88.9194 99.152C89.4154 99.136 89.9114 99.12 90.4074 99.104C90.9194 99.088 91.3914 99.056 91.8234 99.008C92.2554 98.944 92.6154 98.864 92.9034 98.768C93.4794 98.56 93.9274 98.304 94.2474 98C94.5674 97.68 94.7914 97.264 94.9194 96.752C95.0634 96.224 95.1354 95.552 95.1354 94.736C95.1354 94.064 95.0474 93.44 94.8714 92.864C94.6954 92.288 94.4474 91.824 94.1274 91.472C93.8074 91.12 93.4234 90.944 92.9754 90.944C92.6074 90.944 92.2714 91.088 91.9674 91.376C91.6794 91.648 91.4474 92 91.2714 92.432C91.1114 92.864 91.0314 93.296 91.0314 93.728C91.0314 94.064 91.0954 94.352 91.2234 94.592C91.3674 94.832 91.5994 95.024 91.9194 95.168C92.2394 95.296 92.6554 95.36 93.1674 95.36C93.6314 95.36 94.0954 95.312 94.5594 95.216C95.0394 95.12 95.4474 94.992 95.7834 94.832L95.8794 96.512C95.6234 96.688 95.3354 96.832 95.0154 96.944C94.6954 97.056 94.3594 97.136 94.0074 97.184C93.6554 97.232 93.3034 97.256 92.9514 97.256C92.1354 97.256 91.4394 97.128 90.8634 96.872C90.3034 96.6 89.8714 96.24 89.5674 95.792C89.2794 95.328 89.1354 94.8 89.1354 94.208C89.1354 93.6 89.2314 92.992 89.4234 92.384C89.6154 91.76 89.8874 91.192 90.2394 90.68C90.5914 90.168 91.0154 89.76 91.5114 89.456C92.0074 89.136 92.5594 88.976 93.1674 88.976C94.0314 88.976 94.7434 89.256 95.3034 89.816C95.8794 90.376 96.3034 91.112 96.5754 92.024C96.8634 92.92 97.0074 93.872 97.0074 94.88C97.0074 96.08 96.7994 97.112 96.3834 97.976C95.9834 98.824 95.3114 99.528 94.3674 100.088C93.9994 100.296 93.5514 100.472 93.0234 100.616C92.5114 100.744 91.9434 100.848 91.3194 100.928C90.7114 101.008 90.0714 101.056 89.3994 101.072C88.7274 101.104 88.0474 101.12 87.3594 101.12ZM92.7114 86.504C92.3754 86.504 92.0874 86.392 91.8474 86.168C91.6234 85.928 91.5114 85.648 91.5114 85.328C91.5114 85.008 91.6234 84.728 91.8474 84.488C92.0874 84.248 92.3754 84.128 92.7114 84.128C93.0314 84.128 93.3034 84.248 93.5274 84.488C93.7674 84.728 93.8874 85.008 93.8874 85.328C93.8874 85.648 93.7674 85.928 93.5274 86.168C93.3034 86.392 93.0314 86.504 92.7114 86.504ZM103.254 99.152C104.054 99.152 104.686 99.072 105.15 98.912C105.63 98.752 105.974 98.52 106.182 98.216C106.406 97.896 106.518 97.528 106.518 97.112C106.518 96.792 106.43 96.408 106.254 95.96C106.094 95.512 105.87 95.016 105.582 94.472C105.294 93.912 104.958 93.328 104.574 92.72C104.206 92.096 103.806 91.464 103.374 90.824L105.03 89.744C105.654 90.688 106.198 91.584 106.662 92.432C107.126 93.264 107.518 94.048 107.838 94.784C108.158 95.504 108.414 96.184 108.606 96.824C108.83 97.528 109.078 98.048 109.35 98.384C109.638 98.72 109.934 98.936 110.238 99.032C110.542 99.112 110.822 99.152 111.078 99.152C111.414 99.152 111.662 99.248 111.822 99.44C111.982 99.616 112.062 99.832 112.062 100.088C112.062 100.344 111.95 100.584 111.726 100.808C111.502 101.016 111.214 101.12 110.862 101.12C110.334 101.12 109.814 101.024 109.302 100.832C108.806 100.624 108.374 100.296 108.006 99.848C107.638 99.384 107.382 98.768 107.238 98L108.198 97.232C108.198 97.872 108.062 98.496 107.79 99.104C107.518 99.696 107.022 100.184 106.302 100.568C105.598 100.952 104.582 101.144 103.254 101.144C102.678 101.144 102.118 101.096 101.574 101C101.046 100.904 100.558 100.768 100.11 100.592C99.6618 100.4 99.2698 100.176 98.9338 99.92L99.8938 98.264C100.214 98.472 100.662 98.672 101.238 98.864C101.814 99.056 102.486 99.152 103.254 99.152ZM110.867 101.12L111.107 99.152C111.555 99.152 111.931 99.056 112.235 98.864C112.539 98.672 112.835 98.352 113.123 97.904C113.411 97.456 113.723 96.856 114.059 96.104C114.523 95.08 114.979 94.304 115.427 93.776C115.891 93.248 116.347 92.888 116.795 92.696C117.259 92.504 117.715 92.408 118.163 92.408C118.707 92.408 119.211 92.552 119.675 92.84C120.139 93.112 120.547 93.48 120.899 93.944C121.251 94.408 121.523 94.92 121.715 95.48C121.923 96.024 122.027 96.568 122.027 97.112C122.027 98.072 121.859 98.84 121.523 99.416C121.187 99.976 120.755 100.384 120.227 100.64C119.715 100.88 119.179 101 118.619 101C118.123 101 117.483 100.904 116.699 100.712C115.931 100.52 114.955 100.032 113.771 99.248L114.707 97.736C115.491 98.232 116.195 98.576 116.819 98.768C117.459 98.944 117.987 99.032 118.403 99.032C118.867 99.032 119.235 98.968 119.507 98.84C119.779 98.696 119.979 98.496 120.107 98.24C120.235 97.984 120.299 97.696 120.299 97.376C120.299 96.912 120.187 96.448 119.963 95.984C119.739 95.52 119.451 95.136 119.099 94.832C118.763 94.528 118.403 94.376 118.019 94.376C117.731 94.376 117.451 94.456 117.179 94.616C116.907 94.776 116.627 95.072 116.339 95.504C116.051 95.936 115.723 96.56 115.355 97.376C114.971 98.24 114.603 98.928 114.251 99.44C113.915 99.936 113.571 100.304 113.219 100.544C112.867 100.784 112.499 100.936 112.115 101C111.747 101.08 111.331 101.12 110.867 101.12ZM131.559 110.432C131.223 109.2 130.935 107.992 130.695 106.808C130.455 105.64 130.271 104.592 130.143 103.664C130.015 102.736 129.951 102.048 129.951 101.6C129.951 100.416 130.143 99.336 130.527 98.36C130.911 97.384 131.407 96.528 132.015 95.792C132.623 95.04 133.279 94.408 133.983 93.896C134.687 93.368 135.367 92.976 136.023 92.72C136.695 92.448 137.263 92.312 137.727 92.312C138.127 92.312 138.479 92.4 138.783 92.576C139.087 92.752 139.383 93.096 139.671 93.608C139.959 94.12 140.263 94.872 140.583 95.864C140.887 96.776 141.175 97.472 141.447 97.952C141.719 98.416 142.015 98.736 142.335 98.912C142.655 99.072 143.023 99.152 143.439 99.152C143.775 99.152 144.015 99.248 144.159 99.44C144.319 99.616 144.399 99.832 144.399 100.088C144.399 100.344 144.287 100.584 144.063 100.808C143.839 101.016 143.551 101.12 143.199 101.12C142.575 101.12 142.039 101.008 141.591 100.784C141.159 100.56 140.783 100.256 140.463 99.872L141.015 99.416C140.823 99.88 140.575 100.264 140.271 100.568C139.983 100.856 139.655 101.072 139.287 101.216C138.935 101.36 138.559 101.432 138.159 101.432C137.695 101.432 137.215 101.344 136.719 101.168C136.223 101.008 135.735 100.768 135.255 100.448C134.775 100.112 134.319 99.704 133.887 99.224C133.471 98.744 133.103 98.2 132.783 97.592L133.023 97.64C132.575 98.264 132.279 98.944 132.135 99.68C131.991 100.4 131.919 101.04 131.919 101.6C131.919 102.048 131.967 102.616 132.063 103.304C132.159 104.008 132.279 104.752 132.423 105.536C132.583 106.32 132.751 107.096 132.927 107.864C133.119 108.648 133.295 109.352 133.455 109.976L131.559 110.432ZM138.351 99.464C138.639 99.464 138.871 99.408 139.047 99.296C139.239 99.184 139.367 99.016 139.431 98.792C139.495 98.568 139.471 98.288 139.359 97.952C139.167 97.376 138.991 96.872 138.831 96.44C138.671 95.992 138.511 95.624 138.351 95.336C138.207 95.032 138.055 94.808 137.895 94.664C137.735 94.52 137.567 94.448 137.391 94.448C137.215 94.448 136.991 94.488 136.719 94.568C136.463 94.648 136.183 94.768 135.879 94.928C135.591 95.088 135.295 95.288 134.991 95.528C134.687 95.768 134.399 96.048 134.127 96.368L134.151 96.176C134.503 96.912 134.927 97.528 135.423 98.024C135.935 98.52 136.447 98.888 136.959 99.128C137.487 99.352 137.951 99.464 138.351 99.464ZM143.188 101.12L143.428 99.152C143.94 99.152 144.356 99.12 144.676 99.056C144.996 98.976 145.26 98.792 145.468 98.504C145.692 98.2 145.9 97.728 146.092 97.088C146.284 96.448 146.508 95.552 146.764 94.4L148.564 94.904C148.468 95.304 148.356 95.784 148.228 96.344C148.1 96.904 148.036 97.416 148.036 97.88C148.036 98.136 148.1 98.36 148.228 98.552C148.356 98.744 148.572 98.896 148.876 99.008C149.196 99.104 149.62 99.152 150.148 99.152C150.628 99.152 151.02 99.112 151.324 99.032C151.628 98.952 151.876 98.76 152.068 98.456C152.276 98.152 152.46 97.664 152.62 96.992C152.78 96.32 152.948 95.4 153.124 94.232L154.948 94.568C154.9 94.856 154.844 95.208 154.78 95.624C154.716 96.04 154.652 96.456 154.588 96.872C154.54 97.272 154.516 97.608 154.516 97.88C154.516 98.104 154.564 98.32 154.66 98.528C154.772 98.72 154.98 98.872 155.284 98.984C155.604 99.096 156.076 99.152 156.7 99.152C157.5 99.152 158.076 98.984 158.428 98.648C158.796 98.312 158.98 97.8 158.98 97.112C158.98 96.744 158.972 96.36 158.956 95.96C158.94 95.544 158.908 95.088 158.86 94.592C158.828 94.08 158.772 93.496 158.692 92.84L160.444 92.72C160.54 94.016 160.644 95.08 160.756 95.912C160.884 96.744 161.06 97.4 161.284 97.88C161.524 98.344 161.844 98.672 162.244 98.864C162.644 99.056 163.172 99.152 163.828 99.152C164.164 99.152 164.404 99.248 164.548 99.44C164.708 99.616 164.788 99.832 164.788 100.088C164.788 100.344 164.676 100.584 164.452 100.808C164.228 101.016 163.94 101.12 163.588 101.12C163.044 101.12 162.556 101.048 162.124 100.904C161.708 100.744 161.34 100.536 161.02 100.28C160.716 100.008 160.46 99.704 160.252 99.368C160.06 99.016 159.924 98.648 159.844 98.264L160.276 98.408C160.1 99.128 159.82 99.688 159.436 100.088C159.068 100.472 158.628 100.744 158.116 100.904C157.604 101.048 157.06 101.12 156.484 101.12C155.78 101.12 155.204 101.032 154.756 100.856C154.308 100.68 153.956 100.416 153.7 100.064C153.46 99.696 153.3 99.232 153.22 98.672H154.036C153.732 99.36 153.412 99.88 153.076 100.232C152.74 100.584 152.324 100.824 151.828 100.952C151.332 101.064 150.676 101.12 149.86 101.12C149.46 101.12 149.028 101.056 148.564 100.928C148.116 100.8 147.724 100.552 147.388 100.184C147.052 99.8 146.852 99.232 146.788 98.48L147.508 98.336C147.236 99.152 146.9 99.76 146.5 100.16C146.116 100.544 145.652 100.8 145.108 100.928C144.564 101.056 143.924 101.12 143.188 101.12ZM163.578 101.12L163.818 99.152C164.218 99.152 164.658 99.152 165.138 99.152C165.634 99.136 166.13 99.12 166.626 99.104C167.138 99.088 167.61 99.056 168.042 99.008C168.474 98.944 168.834 98.864 169.122 98.768C169.698 98.56 170.146 98.304 170.466 98C170.786 97.68 171.01 97.264 171.138 96.752C171.282 96.224 171.354 95.552 171.354 94.736C171.354 94.064 171.266 93.44 171.09 92.864C170.914 92.288 170.666 91.824 170.346 91.472C170.026 91.12 169.642 90.944 169.194 90.944C168.826 90.944 168.49 91.088 168.186 91.376C167.898 91.648 167.666 92 167.49 92.432C167.33 92.864 167.25 93.296 167.25 93.728C167.25 94.064 167.314 94.352 167.442 94.592C167.586 94.832 167.818 95.024 168.138 95.168C168.458 95.296 168.874 95.36 169.386 95.36C169.85 95.36 170.314 95.312 170.778 95.216C171.258 95.12 171.666 94.992 172.002 94.832L172.098 96.512C171.842 96.688 171.554 96.832 171.234 96.944C170.914 97.056 170.578 97.136 170.226 97.184C169.874 97.232 169.522 97.256 169.17 97.256C168.354 97.256 167.658 97.128 167.082 96.872C166.522 96.6 166.09 96.24 165.786 95.792C165.498 95.328 165.354 94.8 165.354 94.208C165.354 93.6 165.45 92.992 165.642 92.384C165.834 91.76 166.106 91.192 166.458 90.68C166.81 90.168 167.234 89.76 167.73 89.456C168.226 89.136 168.778 88.976 169.386 88.976C170.25 88.976 170.962 89.256 171.522 89.816C172.098 90.376 172.522 91.112 172.794 92.024C173.082 92.92 173.226 93.872 173.226 94.88C173.226 96.08 173.018 97.112 172.602 97.976C172.202 98.824 171.53 99.528 170.586 100.088C170.218 100.296 169.77 100.472 169.242 100.616C168.73 100.744 168.162 100.848 167.538 100.928C166.93 101.008 166.29 101.056 165.618 101.072C164.946 101.104 164.266 101.12 163.578 101.12ZM170.61 86.504C170.274 86.504 169.986 86.392 169.746 86.168C169.522 85.928 169.41 85.648 169.41 85.328C169.41 85.008 169.522 84.728 169.746 84.488C169.986 84.248 170.274 84.128 170.61 84.128C170.93 84.128 171.202 84.248 171.426 84.488C171.666 84.728 171.786 85.008 171.786 85.328C171.786 85.648 171.666 85.928 171.426 86.168C171.202 86.392 170.93 86.504 170.61 86.504ZM167.322 86.504C166.986 86.504 166.698 86.392 166.458 86.168C166.234 85.928 166.122 85.648 166.122 85.328C166.122 85.008 166.234 84.728 166.458 84.488C166.698 84.248 166.986 84.128 167.322 84.128C167.642 84.128 167.914 84.248 168.138 84.488C168.378 84.728 168.498 85.008 168.498 85.328C168.498 85.648 168.378 85.928 168.138 86.168C167.914 86.392 167.642 86.504 167.322 86.504Z" fill="black"/>
<defs>
<linearGradient id="paint0_linear_1031_252" x1="12.7236" y1="43.9968" x2="134.958" y2="-60.8755" gradientUnits="userSpaceOnUse">
<stop offset="0.01" stop-color="#AAE1FF"/>
<stop offset="0.427083" stop-color="#F9BD9A"/>
<stop offset="0.51" stop-color="#FFBC8C"/>
<stop offset="0.640625" stop-color="#FFBE92"/>
<stop offset="0.75" stop-color="#F8BC8B"/>
<stop offset="0.88" stop-color="#F29F7E"/>
<stop offset="1" stop-color="#F0826B"/>
</linearGradient>
<linearGradient id="paint1_linear_1031_252" x1="105.83" y1="20.7525" x2="46.2327" y2="116.802" gradientUnits="userSpaceOnUse">
<stop stop-color="white" stop-opacity="0"/>
<stop offset="0.463182" stop-color="#CAEDFF"/>
<stop offset="1" stop-color="#98D6F7" stop-opacity="0"/>
</linearGradient>
<linearGradient id="paint2_linear_1031_252" x1="41.301" y1="3.17681" x2="54.4146" y2="54.9171" gradientUnits="userSpaceOnUse">
<stop offset="0.01" stop-color="#FFE08B"/>
<stop offset="0.130208" stop-color="#FFE294" stop-opacity="0.590397"/>
<stop offset="0.303475" stop-color="#FFD972" stop-opacity="0"/>
</linearGradient>
<radialGradient id="paint3_radial_1031_252" cx="0" cy="0" r="1" gradientUnits="userSpaceOnUse" gradientTransform="translate(87.4571 24.9768) rotate(90) scale(19.3763 33.1655)">
<stop stop-color="#F8B483" stop-opacity="0.57"/>
<stop offset="1" stop-color="#F8B483" stop-opacity="0"/>
</radialGradient>
<radialGradient id="paint4_radial_1031_252" cx="0" cy="0" r="1" gradientUnits="userSpaceOnUse" gradientTransform="translate(122.994 40.135) rotate(90) scale(24.5742 62.1968)">
<stop stop-color="#EB84A4"/>
<stop offset="0.755208" stop-color="#EB84A4" stop-opacity="0"/>
</radialGradient>
<radialGradient id="paint5_radial_1031_252" cx="0" cy="0" r="1" gradientUnits="userSpaceOnUse" gradientTransform="translate(39.7833 15.9) rotate(90) scale(15.9 39.7833)">
<stop stop-color="#EB84A4"/>
<stop offset="0.755208" stop-color="#EB84A4" stop-opacity="0"/>
</radialGradient>
<linearGradient id="paint6_linear_1031_252" x1="91.2819" y1="25.5821" x2="140.784" y2="85.5638" gradientUnits="userSpaceOnUse">
<stop offset="0.326812" stop-color="#EB84A4" stop-opacity="0"/>
<stop offset="1" stop-color="#9881BB"/>
</linearGradient>
<clipPath id="clip0_1031_252">
<rect x="11" y="0.634613" width="181" height="48.7308" rx="13.9231" fill="white"/>
</clipPath>
<clipPath id="clip1_1031_252">
<rect width="181" height="48.7308" fill="white" transform="translate(11 0.634613)"/>
</clipPath>
<clipPath id="clip2_1031_252">
<rect width="158.955" height="44.0897" fill="white" transform="translate(22 2.95513)"/>
</clipPath>
</defs>
</svg>
