<svg xmlns="http://www.w3.org/2000/svg" width="13.736" height="19.351" viewBox="0 0 13.736 19.351">
  <g id="pin" transform="translate(-79.409 0.501)">
    <path id="Path_22" data-name="Path 22" d="M91.71,3.142A6.227,6.227,0,0,0,86.418,0c-.094,0-.188,0-.282,0a6.227,6.227,0,0,0-5.292,3.141,6.389,6.389,0,0,0-.083,6.312l4.55,8.329.006.011a1.106,1.106,0,0,0,1.919,0l.006-.011,4.551-8.329a6.389,6.389,0,0,0-.083-6.312ZM86.277,8.315a2.581,2.581,0,1,1,2.581-2.581A2.583,2.583,0,0,1,86.277,8.315Z" transform="translate(0 0)" fill="none" stroke="#707070" stroke-width="1"/>
  </g>
</svg>
