<svg xmlns="http://www.w3.org/2000/svg" width="18.471" height="14.444" viewBox="0 0 18.471 14.444">
  <g id="sales" transform="translate(0 -55.784)">
    <g id="Group_1" data-name="Group 1" transform="translate(0 59.238)">
      <path id="Path_6" data-name="Path 6" d="M17.929,161.4H16.837v-7.22a.542.542,0,0,0-.542-.541H13.3a.542.542,0,0,0-.542.541v7.22H11.275v-9.365a.542.542,0,0,0-.542-.541H7.738a.542.542,0,0,0-.542.541V161.4H5.713v-7.793a.542.542,0,0,0-.542-.541H2.176a.542.542,0,0,0-.542.541V161.4H.542a.541.541,0,1,0,0,1.083H17.929a.541.541,0,1,0,0-1.083Zm-15.21,0v-7.252h1.91V161.4Zm5.562,0v-8.824h1.91V161.4Zm5.562,0v-6.679h1.91V161.4Z" transform="translate(0 -151.493)" fill="#707070"/>
    </g>
    <path id="Path_7" data-name="Path 7" d="M25.789,57.844a.542.542,0,0,0-.416-.574l-1.749-.425a.541.541,0,0,0-.256,1.052l.495.12-1.4.866-5.318-3.028a.541.541,0,0,0-.5-.02l-5.286,2.481L8.831,56.739a.541.541,0,1,0-.573.919l2.777,1.733a.541.541,0,0,0,.517.031l5.3-2.487L22.2,59.982a.559.559,0,0,0,.552-.01l1.7-1.049-.113.53a.541.541,0,0,0,1.059.226l.375-1.758a.624.624,0,0,0,.012-.078Z" transform="translate(-7.714)" fill="#707070"/>
  </g>
</svg>
