<svg xmlns="http://www.w3.org/2000/svg" width="18" height="13.711" viewBox="0 0 18 13.711">
  <g id="email" transform="translate(0 -61)">
    <g id="Group_22" data-name="Group 22" transform="translate(0 61)">
      <path id="Path_21" data-name="Path 21" d="M16.418,61H1.582A1.585,1.585,0,0,0,0,62.582V73.129a1.585,1.585,0,0,0,1.582,1.582H16.418A1.585,1.585,0,0,0,18,73.129V62.582A1.585,1.585,0,0,0,16.418,61ZM16.2,62.055,9.034,69.221,1.806,62.055ZM1.055,72.911V62.8l5.079,5.036Zm.746.746,5.083-5.083,1.781,1.766a.527.527,0,0,0,.744,0L11.145,68.6,16.2,73.656Zm15.145-.746L11.89,67.855,16.945,62.8Z" transform="translate(0 -61)" fill="#707070"/>
    </g>
  </g>
</svg>
