<svg xmlns="http://www.w3.org/2000/svg" width="17.52" height="17.502" viewBox="0 0 17.52 17.502">
  <g id="credit-card1" transform="translate(0 -0.243)">
    <g id="Group_29" data-name="Group 29" transform="translate(0 0.243)">
      <g id="Group_28" data-name="Group 28">
        <path id="Path_38" data-name="Path 38" d="M17.4,6.528,15.44,1.438A1.867,1.867,0,0,0,13.027.368l-.042.017L3.2,4.439A1.858,1.858,0,0,0,2.171,6.817l.269.718H1.823A1.825,1.825,0,0,0,0,9.358v6.563a1.825,1.825,0,0,0,1.823,1.823h12.4a1.825,1.825,0,0,0,1.823-1.823V9.358a1.792,1.792,0,0,0-.026-.3l.339-.137A1.874,1.874,0,0,0,17.4,6.528ZM1.823,8.118h12.4a1.238,1.238,0,0,1,1.232,1.167H.591A1.238,1.238,0,0,1,1.823,8.118ZM4.755,6.361,6.7,5.386l.4,1-1.95.975Zm10.705,9.56a1.241,1.241,0,0,1-1.24,1.24H1.823a1.241,1.241,0,0,1-1.24-1.24V12.2H15.46Zm0-4.3H.583V9.869H15.46Zm.677-3.232-.3.123a1.824,1.824,0,0,0-1.612-.975h-8.1L7.607,6.79a.292.292,0,0,0,.141-.369L7.129,4.875a.292.292,0,0,0-.379-.163l-.022.01L4.254,5.96a.292.292,0,0,0-.14.369L4.6,7.535H3.063l-.345-.921A1.277,1.277,0,0,1,3.427,4.98L13.208.926a1.282,1.282,0,0,1,1.675.693l.012.031,1.957,5.089A1.288,1.288,0,0,1,16.137,8.387Z" transform="translate(0 -0.243)" fill="#707070"/>
        <path id="Path_39" data-name="Path 39" d="M264.751,355.493a1.75,1.75,0,1,0-.634-2.393A1.75,1.75,0,0,0,264.751,355.493ZM267,352.884a1.155,1.155,0,0,1,.387-.071,1.167,1.167,0,1,1-.387,2.262A1.743,1.743,0,0,0,267,352.884Zm-.488.332a1.145,1.145,0,0,1,0,1.527A1.145,1.145,0,0,1,266.509,353.216Zm-.875-.4a1.155,1.155,0,0,1,.387.071,1.743,1.743,0,0,0,0,2.191,1.165,1.165,0,1,1-.387-2.262Z" transform="translate(-254.258 -339.395)" fill="#707070"/>
        <rect id="Rectangle_7" data-name="Rectangle 7" width="0.583" height="3.045" transform="translate(12.542 6.553) rotate(-113.966)" fill="#707070"/>
        <rect id="Rectangle_8" data-name="Rectangle 8" width="4.427" height="0.583" transform="matrix(0.908, -0.419, 0.419, 0.908, 10.447, 5.403)" fill="#707070"/>
      </g>
    </g>
  </g>
</svg>
