<svg xmlns="http://www.w3.org/2000/svg" width="16.564" height="18.976" viewBox="0 0 16.564 18.976">
  <g id="_08-Wish_list" data-name="08-Wish list" transform="translate(-36 -3.928)">
    <g id="filled" transform="translate(36 3.928)">
      <path id="Path_17" data-name="Path 17" d="M52.112,9.351H50.155V7.394a.452.452,0,0,0-.452-.452H46.751a2.551,2.551,0,0,0-.819-2.474,2.346,2.346,0,0,0-2.854-.116,2.346,2.346,0,0,0-2.854.116A2.551,2.551,0,0,0,39.4,6.942H36.452A.452.452,0,0,0,36,7.394V20.043a.452.452,0,0,0,.452.452h1.958v1.958a.452.452,0,0,0,.452.452H52.112a.452.452,0,0,0,.452-.452V9.8A.452.452,0,0,0,52.112,9.351Zm-11.3-4.2a1.292,1.292,0,0,1,.855-.32,2.005,2.005,0,0,1,1.149.424.452.452,0,0,0,.526,0,1.551,1.551,0,0,1,2-.1,1.585,1.585,0,0,1,.426,1.858A6.558,6.558,0,0,1,43.077,9.3a6.536,6.536,0,0,1-2.693-2.286A1.585,1.585,0,0,1,40.81,5.156ZM36.9,7.846h2.927a8.51,8.51,0,0,0,3.061,2.369.452.452,0,0,0,.373,0,8.512,8.512,0,0,0,3.061-2.369h2.927V19.591H36.9ZM51.661,22H39.313V20.495H49.7a.452.452,0,0,0,.452-.452V10.255h1.506Z" transform="translate(-36 -3.928)" fill="#707070"/>
      <path id="Path_18" data-name="Path 18" d="M180.452,212.9h4.819a.452.452,0,0,0,0-.9h-4.819a.452.452,0,0,0,0,.9Z" transform="translate(-174.579 -204.167)" fill="#707070"/>
      <circle id="Ellipse_2" data-name="Ellipse 2" cx="0.452" cy="0.452" r="0.452" transform="translate(3.012 7.833)" fill="#707070"/>
      <path id="Path_19" data-name="Path 19" d="M180.452,276.9h4.819a.452.452,0,0,0,0-.9h-4.819a.452.452,0,1,0,0,.9Z" transform="translate(-174.579 -265.758)" fill="#707070"/>
      <circle id="Ellipse_3" data-name="Ellipse 3" cx="0.452" cy="0.452" r="0.452" transform="translate(3.012 10.242)" fill="#707070"/>
      <path id="Path_20" data-name="Path 20" d="M180.452,340.9h4.819a.452.452,0,1,0,0-.9h-4.819a.452.452,0,1,0,0,.9Z" transform="translate(-174.579 -327.348)" fill="#707070"/>
      <circle id="Ellipse_4" data-name="Ellipse 4" cx="0.452" cy="0.452" r="0.452" transform="translate(3.012 12.652)" fill="#707070"/>
    </g>
  </g>
</svg>
