<svg xmlns="http://www.w3.org/2000/svg" width="21.241" height="18.669" viewBox="0 0 21.241 18.669">
  <g id="shopping-cart" transform="translate(0 0)">
    <path id="Path_3" data-name="Path 3" d="M6.843,12.446H18.129a.622.622,0,0,0,.6-.451l2.489-8.712a.622.622,0,0,0-.6-.793H5.408l-.445-2A.622.622,0,0,0,4.356,0H.622a.622.622,0,1,0,0,1.245H3.857L6.1,11.355a1.867,1.867,0,0,0,.742,3.58H18.129a.622.622,0,1,0,0-1.245H6.845a.622.622,0,0,1,0-1.244Zm12.95-8.712L17.66,11.2H7.344L5.685,3.734Zm0,0" fill="#707070"/>
    <path id="Path_4" data-name="Path 4" d="M150,361.867A1.867,1.867,0,1,0,151.867,360,1.869,1.869,0,0,0,150,361.867Zm1.867-.622a.622.622,0,1,1-.622.622A.623.623,0,0,1,151.867,361.245Zm0,0" transform="translate(-143.777 -345.065)" fill="#707070"/>
    <path id="Path_5" data-name="Path 5" d="M362,361.867A1.867,1.867,0,1,0,363.867,360,1.869,1.869,0,0,0,362,361.867Zm1.867-.622a.622.622,0,1,1-.622.622A.623.623,0,0,1,363.867,361.245Zm0,0" transform="translate(-346.982 -345.065)" fill="#707070"/>
  </g>
</svg>
