<svg xmlns="http://www.w3.org/2000/svg" width="17.117" height="17.142" viewBox="0 0 17.117 17.142">
  <g id="phone-call" transform="translate(-0.344 0)">
    <g id="Group_30" data-name="Group 30" transform="translate(0.344 0)">
      <path id="Path_40" data-name="Path 40" d="M13.88,37.033a1.686,1.686,0,0,0-1.223-.561,1.743,1.743,0,0,0-1.237.557l-1.143,1.14c-.094-.051-.188-.1-.279-.145-.13-.065-.253-.127-.358-.192A12.426,12.426,0,0,1,6.662,35.12a7.331,7.331,0,0,1-.977-1.541c.3-.271.572-.554.839-.825.1-.1.2-.206.3-.308a1.66,1.66,0,0,0,0-2.5l-.988-.988c-.112-.112-.228-.228-.336-.344-.217-.224-.445-.456-.68-.673a1.713,1.713,0,0,0-1.212-.532,1.772,1.772,0,0,0-1.23.532l-.007.007-1.23,1.241a2.647,2.647,0,0,0-.785,1.682,6.342,6.342,0,0,0,.463,2.685A15.578,15.578,0,0,0,3.59,38.17,17.026,17.026,0,0,0,9.26,42.609a8.833,8.833,0,0,0,3.184.941c.076,0,.156.007.228.007a2.726,2.726,0,0,0,2.088-.9c0-.007.011-.011.014-.018a8.225,8.225,0,0,1,.633-.655c.156-.148.315-.3.47-.467a1.8,1.8,0,0,0,.546-1.252,1.739,1.739,0,0,0-.557-1.241Zm1.3,3.81s0,0,0,0c-.141.152-.286.289-.441.441a9.513,9.513,0,0,0-.7.724,1.744,1.744,0,0,1-1.36.575c-.054,0-.112,0-.166,0a7.847,7.847,0,0,1-2.822-.847,16.071,16.071,0,0,1-5.34-4.182,14.688,14.688,0,0,1-2.6-4.338,5.166,5.166,0,0,1-.405-2.265,1.661,1.661,0,0,1,.5-1.075L3.069,28.64a.822.822,0,0,1,.55-.257.774.774,0,0,1,.528.253l.011.011c.221.206.431.42.651.648.112.116.228.232.344.351l.988.988a.69.69,0,0,1,0,1.122c-.1.1-.206.21-.311.311-.3.311-.593.6-.908.883-.007.007-.014.011-.018.018a.738.738,0,0,0-.188.821l.011.033a7.93,7.93,0,0,0,1.169,1.907l0,0a13.279,13.279,0,0,0,3.213,2.923,4.94,4.94,0,0,0,.445.242c.13.065.253.127.358.192.014.007.029.018.043.025a.784.784,0,0,0,.358.09.774.774,0,0,0,.55-.25L12.1,37.717a.818.818,0,0,1,.546-.271.737.737,0,0,1,.521.264l.007.007,1.994,1.994A.715.715,0,0,1,15.175,40.843Z" transform="translate(-0.344 -26.414)" fill="#707070"/>
      <path id="Path_41" data-name="Path 41" d="M245.346,86.894a4.656,4.656,0,0,1,3.792,3.792.485.485,0,0,0,.481.405.646.646,0,0,0,.083-.007.489.489,0,0,0,.4-.564,5.63,5.63,0,0,0-4.588-4.588.491.491,0,0,0-.564.4A.483.483,0,0,0,245.346,86.894Z" transform="translate(-236.094 -82.816)" fill="#707070"/>
      <path id="Path_42" data-name="Path 42" d="M256.9,7.562A9.271,9.271,0,0,0,249.343.008a.488.488,0,1,0-.159.962,8.281,8.281,0,0,1,6.751,6.751.485.485,0,0,0,.481.405.646.646,0,0,0,.083-.007A.479.479,0,0,0,256.9,7.562Z" transform="translate(-239.787 0)" fill="#707070"/>
    </g>
  </g>
</svg>
