<svg xmlns="http://www.w3.org/2000/svg" width="34.157" height="34.157" viewBox="0 0 34.157 34.157">
  <g id="exchange" transform="translate(-0.001 -0.501)">
    <path id="Path_61" data-name="Path 61" d="M33.812,7.888l-13.3-7.3a.667.667,0,0,0-.642,0L14.853,3.336a.669.669,0,0,0-.286.157l-8,4.394a.667.667,0,0,0-.346.585v8.835A8.887,8.887,0,0,0,.9,29.677a.667.667,0,0,0,1.2-.586,7.542,7.542,0,1,1,3.467,3.467.667.667,0,0,0-.586,1.2,8.893,8.893,0,0,0,12.01-4.364l2.875,1.578a.667.667,0,0,0,.642,0l13.3-7.3a.667.667,0,0,0,.346-.585V18.445a.667.667,0,1,0-1.334,0v4.241L20.857,29.258V16.171L24.806,14V17.44a.667.667,0,0,0,.989.585l2.851-1.569a.667.667,0,0,0,.345-.584V11.7l3.833-2.1v3.509a.667.667,0,0,0,1.334,0V8.472a.667.667,0,0,0-.346-.585ZM20.188,1.929,32.1,8.472l-3.759,2.064L16.429,3.993Zm0,13.087L8.271,8.472l3.9-2.14,11.917,6.544Zm5.283-2.9L13.554,5.571l1.489-.817L26.96,11.3ZM15.156,19.5A8.818,8.818,0,0,0,8.88,16.9a9,9,0,0,0-1.327.1V9.6l11.971,6.573V29.26l-2.078-1.141a8.919,8.919,0,0,0,.31-2.34,8.818,8.818,0,0,0-2.6-6.276Zm12.5-4.026-1.516.835V13.269l1.516-.833Zm0,0" transform="translate(0)" fill="#707070"/>
    <path id="Path_62" data-name="Path 62" d="M492.667,219.441a.667.667,0,1,0,.472.2A.672.672,0,0,0,492.667,219.441Zm0,0" transform="translate(-459.176 -204.334)" fill="#707070"/>
    <path id="Path_63" data-name="Path 63" d="M67.728,325.957a.667.667,0,0,0,.472-1.139l-.462-.462H71.68a1.735,1.735,0,1,1,0,3.469H69.344a.667.667,0,1,0,0,1.334H71.68a3.068,3.068,0,1,0,0-6.137H67.738l.462-.462a.667.667,0,1,0-.943-.944l-1.6,1.6a.668.668,0,0,0,0,.944l1.6,1.6a.665.665,0,0,0,.472.2Zm0,0" transform="translate(-61.092 -299.511)" fill="#707070"/>
    <path id="Path_64" data-name="Path 64" d="M36.736,457.767a.664.664,0,0,1-.51-.237v0a.666.666,0,1,1,.511.239Zm0,0" transform="translate(-33.66 -425.515)" fill="#707070"/>
  </g>
</svg>
