<svg xmlns="http://www.w3.org/2000/svg" width="15.894" height="18.755" viewBox="0 0 15.894 18.755">
  <g id="shopping-bag" transform="translate(-15.359)">
    <g id="Group_3" data-name="Group 3" transform="translate(21.061)">
      <g id="Group_2" data-name="Group 2">
        <path id="Path_8" data-name="Path 8" d="M81.512,2.318A2.7,2.7,0,0,0,76.654,1.11a.318.318,0,1,0,.513.375,2.067,2.067,0,0,1,3.715.923.318.318,0,0,0,.314.273.34.34,0,0,0,.045,0A.318.318,0,0,0,81.512,2.318Z" transform="translate(-76.593)" fill="#707070"/>
      </g>
    </g>
    <g id="Group_5" data-name="Group 5" transform="translate(15.994 4.132)">
      <g id="Group_4" data-name="Group 4" transform="translate(0)">
        <path id="Path_9" data-name="Path 9" d="M36.762,46.116l-.954-1.589a.317.317,0,0,0-.273-.154h-.914a.318.318,0,0,0,0,.636h.734l.572.954H23.064l.572-.954h.337a.318.318,0,1,0,0-.636h-.517a.317.317,0,0,0-.273.154l-.954,1.589a.318.318,0,0,0,.273.482H36.49a.318.318,0,0,0,.273-.482Z" transform="translate(-22.185 -44.372)" fill="#707070"/>
      </g>
    </g>
    <g id="Group_7" data-name="Group 7" transform="translate(23.739 1.781)">
      <g id="Group_6" data-name="Group 6" transform="translate(0)">
        <path id="Path_10" data-name="Path 10" d="M110.592,20.29a.317.317,0,0,0-.2-.142l-4.333-1.014a.318.318,0,0,0-.382.237l-.327,1.4a.318.318,0,0,0,.619.145l.254-1.087,3.714.869-.584,2.5a.318.318,0,0,0,.237.382.321.321,0,0,0,.073.008.317.317,0,0,0,.309-.245l.656-2.8A.317.317,0,0,0,110.592,20.29Z" transform="translate(-105.343 -19.126)" fill="#707070"/>
      </g>
    </g>
    <g id="Group_9" data-name="Group 9" transform="translate(17.234 0.966)">
      <g id="Group_8" data-name="Group 8">
        <path id="Path_11" data-name="Path 11" d="M41.734,13.1l-.29-2.45a.318.318,0,0,0-.353-.278L35.775,11a.318.318,0,0,0-.278.353l.483,4.086a.318.318,0,0,0,.315.281l.038,0a.318.318,0,0,0,.278-.353l-.446-3.77,4.685-.554.252,2.134a.318.318,0,0,0,.631-.074Z" transform="translate(-35.494 -10.374)" fill="#707070"/>
      </g>
    </g>
    <g id="Group_11" data-name="Group 11" transform="translate(19.609 3.052)">
      <g id="Group_10" data-name="Group 10" transform="translate(0)">
        <path id="Path_12" data-name="Path 12" d="M67.376,35.637l-.631-2.624a.318.318,0,0,0-.383-.235L61.241,34.01a.318.318,0,0,0-.235.383l.315,1.311a.318.318,0,1,0,.618-.149l-.241-1,4.5-1.083.557,2.315a.318.318,0,0,0,.618-.149Z" transform="translate(-60.997 -32.769)" fill="#707070"/>
      </g>
    </g>
    <g id="Group_13" data-name="Group 13" transform="translate(15.359 5.722)">
      <g id="Group_12" data-name="Group 12">
        <path id="Path_13" data-name="Path 13" d="M30.617,61.743a.318.318,0,0,0-.318-.3H16.312a.318.318,0,0,0-.318.3l-.636,12.4a.318.318,0,0,0,.317.334H30.935a.318.318,0,0,0,.318-.334Zm-14.606,12.1.6-11.762H30l.6,11.762Z" transform="translate(-15.359 -61.441)" fill="#707070"/>
      </g>
    </g>
    <g id="Group_15" data-name="Group 15" transform="translate(24.736 6.993)">
      <g id="Group_14" data-name="Group 14">
        <path id="Path_14" data-name="Path 14" d="M117.006,75.093a.954.954,0,1,0,.954.954A.955.955,0,0,0,117.006,75.093Zm0,1.272a.318.318,0,1,1,.318-.318A.318.318,0,0,1,117.006,76.365Z" transform="translate(-116.052 -75.093)" fill="#707070"/>
      </g>
    </g>
    <g id="Group_17" data-name="Group 17" transform="translate(19.968 6.993)">
      <g id="Group_16" data-name="Group 16" transform="translate(0)">
        <path id="Path_15" data-name="Path 15" d="M65.806,75.093a.954.954,0,1,0,.954.954A.955.955,0,0,0,65.806,75.093Zm0,1.272a.318.318,0,1,1,.318-.318A.318.318,0,0,1,65.806,76.365Z" transform="translate(-64.852 -75.093)" fill="#707070"/>
      </g>
    </g>
    <g id="Group_19" data-name="Group 19" transform="translate(20.604 7.947)">
      <g id="Group_18" data-name="Group 18" transform="translate(0)">
        <path id="Path_16" data-name="Path 16" d="M76.765,85.333h-.024a.318.318,0,0,0-.318.318.314.314,0,0,0,.024.123V87.4a2.066,2.066,0,1,1-4.132,0V85.651a.318.318,0,0,0-.636,0V87.4a2.7,2.7,0,1,0,5.4,0V85.651A.318.318,0,0,0,76.765,85.333Z" transform="translate(-71.679 -85.333)" fill="#707070"/>
      </g>
    </g>
  </g>
</svg>
