<svg class="user-icon" xmlns="http://www.w3.org/2000/svg" width="17.836" height="21.18" viewBox="0 0 17.836 21.18">
  <g id="user" transform="translate(0.5 0.5)">
    <path id="Path_1" data-name="Path 1" d="M91.892,9.721A4.7,4.7,0,0,0,95.329,8.3,4.7,4.7,0,0,0,96.753,4.86a4.7,4.7,0,0,0-1.424-3.437,4.859,4.859,0,0,0-6.873,0A4.7,4.7,0,0,0,87.032,4.86,4.7,4.7,0,0,0,88.456,8.3,4.7,4.7,0,0,0,91.892,9.721Zm0,0" transform="translate(-83.602 0)" fill="none" stroke="#707070" stroke-width="1"/>
    <path id="Path_2" data-name="Path 2" d="M16.8,253.086a12.005,12.005,0,0,0-.164-1.275,10.047,10.047,0,0,0-.314-1.282,6.332,6.332,0,0,0-.527-1.2A4.512,4.512,0,0,0,15,248.3a3.5,3.5,0,0,0-1.142-.717,3.946,3.946,0,0,0-1.457-.264,1.479,1.479,0,0,0-.79.335c-.237.154-.514.333-.823.531a4.716,4.716,0,0,1-1.065.469,4.135,4.135,0,0,1-2.6,0,4.705,4.705,0,0,1-1.064-.469c-.306-.2-.583-.374-.824-.531a1.477,1.477,0,0,0-.79-.335,3.941,3.941,0,0,0-1.457.264,3.5,3.5,0,0,0-1.142.717,4.513,4.513,0,0,0-.794,1.036,6.345,6.345,0,0,0-.527,1.2A10.07,10.07,0,0,0,.2,251.811a11.962,11.962,0,0,0-.164,1.276c-.027.386-.04.787-.04,1.192a3.351,3.351,0,0,0,1,2.535,3.583,3.583,0,0,0,2.565.935h9.717a3.582,3.582,0,0,0,2.564-.935,3.349,3.349,0,0,0,1-2.535c0-.407-.014-.808-.041-1.192Zm0,0" transform="translate(0 -237.568)" fill="none" stroke="#707070" stroke-width="1"/>
  </g>
</svg>
