<svg xmlns="http://www.w3.org/2000/svg" width="61.417" height="61.416" viewBox="0 0 61.417 61.416">
  <g id="Outline" transform="translate(0)">
    <path id="Path_7" data-name="Path 7" d="M60.583,59.715l1.448-1.448L50.471,46.708,79.132,18.047H96.109v4.094H93.886a3.071,3.071,0,1,0,0,2.047h2.223V35.024L75.937,55.2l1.448,1.448L97.857,36.172a1.024,1.024,0,0,0,.3-.724V30.33h3.071a4.094,4.094,0,1,0,0-8.189H98.156V17.024A1.024,1.024,0,0,0,97.133,16H78.708a1.024,1.024,0,0,0-.724.3L48.3,45.984a1.024,1.024,0,0,0,0,1.448Zm29.385-36.55a1.025,1.025,0,0,1,1.024-1.024v2.047A1.025,1.025,0,0,1,89.968,23.165Zm11.26,1.024a2.047,2.047,0,1,1,0,4.094H98.156V24.189Z" transform="translate(-43.905 -16)" fill="#000"/>
    <path id="Path_8" data-name="Path 8" d="M232.118,92.009a3.263,3.263,0,0,0,2.088,2.123,3.175,3.175,0,0,0,1.31,2.481,3.371,3.371,0,0,0,3,.54,3.415,3.415,0,0,0,5.318,0,3.371,3.371,0,0,0,3-.54,3.175,3.175,0,0,0,1.31-2.481,3.263,3.263,0,0,0,2.088-2.123,3.131,3.131,0,0,0-.425-2.8,3.131,3.131,0,0,0,.425-2.8,3.263,3.263,0,0,0-2.088-2.123,3.175,3.175,0,0,0-1.31-2.481,3.371,3.371,0,0,0-3-.54,3.415,3.415,0,0,0-5.318,0,3.371,3.371,0,0,0-3,.54,3.175,3.175,0,0,0-1.31,2.481,3.263,3.263,0,0,0-2.088,2.123,3.131,3.131,0,0,0,.425,2.8A3.131,3.131,0,0,0,232.118,92.009Zm2.447-3.65a1.13,1.13,0,0,1-.494-1.327,1.24,1.24,0,0,1,1.273-.868,1.024,1.024,0,0,0,.988-1.377,1.135,1.135,0,0,1,.411-1.336,1.306,1.306,0,0,1,1.607,0,1.024,1.024,0,0,0,1.589-.523,1.315,1.315,0,0,1,2.479,0,1.024,1.024,0,0,0,1.589.523,1.305,1.305,0,0,1,1.607,0,1.135,1.135,0,0,1,.411,1.336,1.024,1.024,0,0,0,.988,1.377,1.243,1.243,0,0,1,1.273.868,1.13,1.13,0,0,1-.494,1.327,1.024,1.024,0,0,0,0,1.708,1.13,1.13,0,0,1,.494,1.327,1.241,1.241,0,0,1-1.273.868,1.024,1.024,0,0,0-.988,1.377,1.135,1.135,0,0,1-.411,1.336,1.306,1.306,0,0,1-1.607,0,1.024,1.024,0,0,0-1.589.523,1.315,1.315,0,0,1-2.479,0,1.024,1.024,0,0,0-1.589-.523,1.306,1.306,0,0,1-1.607,0,1.135,1.135,0,0,1-.411-1.336,1.024,1.024,0,0,0-.988-1.377,1.239,1.239,0,0,1-1.273-.868,1.13,1.13,0,0,1,.494-1.327,1.024,1.024,0,0,0,0-1.708Z" transform="translate(-204.328 -71.811)" fill="#000"/>
    <rect id="Rectangle_1" data-name="Rectangle 1" width="8.686" height="2.047" transform="translate(9.513 31.008) rotate(-45)" fill="#000"/>
    <rect id="Rectangle_2" data-name="Rectangle 2" width="8.686" height="2.047" transform="translate(12.584 34.079) rotate(-45)" fill="#000"/>
    <rect id="Rectangle_3" data-name="Rectangle 3" width="8.686" height="2.047" transform="translate(15.655 37.15) rotate(-45)" fill="#000"/>
    <rect id="Rectangle_4" data-name="Rectangle 4" width="8.686" height="2.047" transform="translate(18.726 40.22) rotate(-45)" fill="#000"/>
    <rect id="Rectangle_5" data-name="Rectangle 5" width="4.343" height="2.047" transform="translate(24.867 40.221) rotate(-45)" fill="#000"/>
    <rect id="Rectangle_6" data-name="Rectangle 6" width="2.047" height="3.528" transform="translate(21.796 21.196) rotate(-45)" fill="#000"/>
    <rect id="Rectangle_7" data-name="Rectangle 7" width="2.047" height="9.048" transform="translate(25.635 25.035) rotate(-45)" fill="#000"/>
    <path id="Path_9" data-name="Path 9" d="M96.776,23.135a6,6,0,0,1,4.373,4.373,1.024,1.024,0,0,0,1.986,0,6,6,0,0,1,4.373-4.373,1.024,1.024,0,0,0,0-1.986,6,6,0,0,1-4.373-4.373,1.024,1.024,0,0,0-1.986,0,6,6,0,0,1-4.373,4.373,1.024,1.024,0,0,0,0,1.986Zm5.366-3.529a8.034,8.034,0,0,0,2.536,2.536,8.034,8.034,0,0,0-2.536,2.536,8.034,8.034,0,0,0-2.536-2.536A8.034,8.034,0,0,0,102.142,19.606Z" transform="translate(-85.764 -16.001)" fill="#000"/>
    <rect id="Rectangle_8" data-name="Rectangle 8" width="10.917" height="2.047" transform="translate(41.245 36.126) rotate(-45)" fill="#000"/>
    <rect id="Rectangle_9" data-name="Rectangle 9" width="2.895" height="2.047" transform="translate(50.458 26.913) rotate(-45)" fill="#000"/>
    <path id="Path_10" data-name="Path 10" d="M76.389,329.023H67.176a1.024,1.024,0,0,0-1.024,1.024v.97a16.055,16.055,0,0,0-17.241-.955l-1.793,1.009h-8.6a5.116,5.116,0,0,0-4.224,8.005l-10.918-5.424a4.83,4.83,0,0,0-2.1-.5l-.44,0a4.8,4.8,0,0,0-2.184,9.1l12.56,6.28a9.258,9.258,0,0,0,4.12.972H76.389a1.024,1.024,0,0,0,1.024-1.024V330.047A1.024,1.024,0,0,0,76.389,329.023ZM32.126,346.692l-12.56-6.28a2.754,2.754,0,0,1,1.231-5.218h.022l.44,0a2.773,2.773,0,0,1,1.2.288l11.5,5.715a1.025,1.025,0,0,0,.456.107H47.728a1.024,1.024,0,1,0,0-2.047H38.515a3.071,3.071,0,0,1,0-6.142h8.871a1.024,1.024,0,0,0,.5-.131l2.027-1.14a14.011,14.011,0,0,1,15.622,1.271l.616.492v13.839H35.33a7.2,7.2,0,0,1-3.2-.756Zm43.239.756H68.2V331.07h7.165Z" transform="translate(-15.995 -288.079)" fill="#000"/>
    <path id="Path_11" data-name="Path 11" d="M441.535,435.071A1.535,1.535,0,1,0,440,433.535,1.535,1.535,0,0,0,441.535,435.071Z" transform="translate(-385.748 -378.772)" fill="#000"/>
    <rect id="Rectangle_10" data-name="Rectangle 10" width="2.047" height="11.581" transform="translate(19.749 25.29) rotate(-45)" fill="#000"/>
  </g>
</svg>
